<?xml version="1.0" encoding="UTF-8"?>
<svg width="199px" height="54px" viewBox="0 0 199 54" version="1.1" xmlns="http://www.w3.org/2000/svg" xmlns:xlink="http://www.w3.org/1999/xlink">
    <!-- Generator: sketchtool 54.1 (76490) - https://sketchapp.com -->
    <title>1973A86E-364B-481E-8561-8006DD8E8236</title>
    <desc>Created with sketchtool.</desc>
    <g id="Page-1" stroke="none" stroke-width="1" fill="none" fill-rule="evenodd">
        <g id="FC-Landing-Page-Desktop" transform="translate(-602.000000, -949.000000)" fill="#FFFFFF">
            <g id="supporters" transform="translate(371.000000, 877.000000)">
                <g id="PR-logos-1" transform="translate(0.000000, 72.000000)">
                    <g id="cineuropa" transform="translate(231.000000, 0.000000)">
                        <path d="M59.5472684,36.2000018 L59.5472684,36.2000018 C55.4041855,36.200853 51.7772874,33.4183124 50.7051395,29.4163583 C49.6329917,25.4144043 51.3830469,21.1913451 54.9716542,19.1208295 C58.5602614,17.0503139 63.0922241,17.6488427 66.0202684,20.5800018 C66.5490965,21.1033115 67.0097389,21.6912941 67.3912684,22.3300018 L63.0172684,24.9600018 C62.8497645,24.6795897 62.6482361,24.4209615 62.4172684,24.1900018 C60.8304589,22.6101254 58.265078,22.6101254 56.6782684,24.1900018 C55.6306751,25.2084932 55.2130533,26.712386 55.5854854,28.1252097 C55.9579174,29.5380335 57.0626305,30.6406262 58.4761672,31.0103433 C59.8897039,31.3800603 61.3927916,30.95955 62.4092684,29.9100018 C62.6481952,29.6744247 62.8555886,29.4088805 63.0262684,29.1200018 L67.4062684,31.7400018 C67.0168812,32.3880789 66.5493825,32.9858862 66.0142684,33.5200018 C64.303601,35.2432369 61.9734053,36.2085985 59.5452684,36.2000018 L59.5472684,36.2000018 Z M68.7452684,36.0000018 L73.5452684,36.0000018 L73.5452684,18.0000018 L68.7452684,18.0000018 L68.7452684,36.0000018 Z M73.6992684,13.3500018 C73.7000775,14.382371 73.0788159,15.3135365 72.1252632,15.7091678 C71.1717105,16.1047992 70.0737219,15.8869548 69.3434402,15.1572455 C68.6131586,14.4275362 68.3944535,13.3297187 68.7893371,12.3758561 C69.1842208,11.4219935 70.1148989,10.8000021 71.1472684,10.8000018 C71.823917,10.799471 72.4730334,11.0678967 72.9516838,11.546172 C73.4303342,12.0244473 73.6992687,12.673353 73.6992684,13.3500018 L73.6992684,13.3500018 Z M152.942268,36.1600018 C147.889645,36.1566886 143.796061,32.0586281 143.798269,27.0060044 C143.800478,21.9533807 147.897643,17.8589003 152.950267,17.8600039 C158.002891,17.8611076 162.098267,21.9573776 162.098268,27.0100018 C162.092752,32.063463 157.995732,36.157798 152.942268,36.1600018 L152.942268,36.1600018 Z M152.942268,22.8100018 C150.622672,22.8100018 148.742268,24.6904058 148.742268,27.0100018 C148.742268,29.3295977 150.622672,31.2100018 152.942268,31.2100018 C155.261864,31.2100018 157.142268,29.3295977 157.142268,27.0100018 C157.136765,24.6915187 155.257755,22.8138502 152.939268,22.8100018 L152.942268,22.8100018 Z M178.926268,20.7200018 C178.181369,19.8138199 177.248533,19.0802437 176.192268,18.5700018 C175.0982,18.0588732 173.899253,17.8122326 172.692268,17.8500018 C171.49969,17.8961156 170.33823,18.2435904 169.316268,18.8600018 C168.952645,18.9766034 168.636775,19.2082411 168.416268,19.5200018 L168.416268,18.0000018 L163.016268,18.6000018 L163.016268,43.2000018 L168.416268,43.2000018 L168.416268,34.4800018 C168.64392,34.7915382 168.964693,35.0226624 169.332268,35.1400018 C170.362505,35.7575247 171.531981,36.1049281 172.732268,36.1500018 C173.9496,36.1882516 175.159045,35.9417056 176.264268,35.4300018 C177.340682,34.9219284 178.295517,34.1887519 179.064268,33.2800018 C180.162349,31.9539574 180.887219,30.3592421 181.164268,28.6600018 C181.211268,28.3800018 181.241268,28.1200018 181.264268,27.8200018 L181.164268,27.3700018 L181.040268,27.0600018 L181.040268,27.0000018 C181.100293,24.7248892 180.356761,22.5013747 178.940268,20.7200018 L178.926268,20.7200018 Z M176.412268,27.4300018 C176.399268,27.5400018 176.379268,27.6900018 176.354268,27.8200018 C176.304072,28.0859787 176.230452,28.3469954 176.134268,28.6000018 C175.943751,29.087479 175.663965,29.5351366 175.309268,29.9200018 C174.682888,30.6265026 173.816656,31.0754752 172.878268,31.1800018 C171.825656,31.2928284 170.768948,31.0074244 169.916268,30.3800018 C168.856497,29.579438 168.23356,28.3281652 168.23356,27.0000018 C168.23356,25.6718383 168.856497,24.4205655 169.916268,23.6200018 C170.768948,22.9925791 171.825656,22.7071751 172.878268,22.8200018 C173.816656,22.9245283 174.682888,23.3735009 175.309268,24.0800018 C176.033297,24.876525 176.43565,25.9135911 176.438268,26.9900018 L176.429268,27.2600018 L176.412268,27.4300018 Z M124.580268,18.0000018 L124.580268,28.3600018 C124.644562,29.4731311 124.087242,30.530352 123.132536,31.1063103 C122.177831,31.6822685 120.982706,31.6822685 120.028001,31.1063103 C119.073295,30.530352 118.515975,29.4731311 118.580268,28.3600018 L118.580268,18.0000018 L113.180268,18.0000018 L113.180268,29.5600018 C113.181282,32.2656675 114.83356,34.6966655 117.348949,35.6933832 C119.864338,36.6901008 122.733284,36.0506286 124.587268,34.0800018 L124.587268,36.0000018 L129.987268,36.0000018 L129.987268,18.0000018 L124.587268,18.0000018 L124.580268,18.0000018 Z M86.1612684,17.8600018 C84.3422974,17.8588663 82.6042826,18.612006 81.3612684,19.9400018 L81.3612684,18.0200018 L75.9612684,18.6200018 L75.9612684,36.0000018 L81.3612684,36.0000018 L81.3612684,25.6600018 C81.2905828,24.5429222 81.8464187,23.4790827 82.8037698,22.8991327 C83.761121,22.3191828 84.9614159,22.3191828 85.9187671,22.8991327 C86.8761182,23.4790827 87.4319541,24.5429222 87.3612684,25.6600018 L87.3612684,36.0000018 L92.7612684,36.0000018 L92.7612684,24.4600018 C92.7557555,20.8152565 89.8010168,17.8627546 86.1562684,17.8600018 L86.1612684,17.8600018 Z M142.098268,17.8600018 C140.247857,17.8574498 138.47617,18.6084397 137.191268,19.9400018 L137.191268,18.0200018 L132.391268,18.6200018 L132.391268,36.0000018 L137.191268,36.0000018 L137.191268,25.6600018 C137.224732,24.3168618 138.083434,23.1336321 139.350018,22.6854017 C140.616601,22.2371713 142.028414,22.61689 142.899268,23.6400018 L143.707268,18.0600018 C143.181244,17.9271876 142.6408,17.8600099 142.098268,17.8600018 L142.098268,17.8600018 Z M111.972268,27.0000018 L112.179268,27.0000018 C112.1106,27.0083197 112.041419,27.0116617 111.972268,27.0100018 L111.972268,26.9000018 C111.972268,26.9000018 112.072268,27.0400018 112.072268,27.0400018 C112.043625,22.0260476 107.961271,17.9817212 102.947268,18.0000018 L102.972268,18.0000018 C98.8097934,17.9671083 95.1586566,20.7702844 94.1152684,24.8000018 C94.1022684,24.8500018 94.0972684,24.8300018 94.0842684,24.8800018 C94.0282684,25.1100018 93.9842684,25.3100018 93.9452684,25.5500018 C93.9252684,25.6600018 93.9082684,25.7600018 93.8932684,25.8800018 C93.8712684,26.0600018 93.8572684,26.2300018 93.8442684,26.4200018 C93.8342684,26.5700018 93.8252684,26.6900018 93.8222684,26.8400018 C93.8222684,26.9000018 93.8132684,27.0000018 93.8132684,27.0000018 L93.8262684,27.0000018 C93.8262684,27.0000018 93.8262684,27.4400018 93.8382684,27.6600018 C93.9206027,28.9826468 94.287275,30.2719688 94.9132684,31.4400018 C95.2228686,32.0256751 95.5957643,32.5756291 96.0252684,33.0800018 C96.1332684,33.2000018 96.2432684,33.3300018 96.3522684,33.4500018 C96.4852684,33.5800018 96.6182684,33.7100018 96.7522684,33.8500018 C96.8522684,33.9400018 96.9452684,34.0200018 97.0412684,34.1100018 C97.1932684,34.2400018 97.3642684,34.3900018 97.5072684,34.4900018 C98.553615,35.248352 99.7450869,35.7828122 101.007268,36.0600018 C102.167556,36.3310549 103.36054,36.4354367 104.550268,36.3700018 C105.743839,36.3000098 106.920047,36.0505419 108.039268,35.6300018 C109.262566,35.183553 110.366723,34.4615913 111.266268,33.5200018 C110.235268,32.5100018 109.204268,31.5100018 108.173268,30.5000018 C107.079182,31.3105787 105.739577,31.7201574 104.379268,31.6600018 C103.008467,31.7143328 101.657707,31.3173603 100.534268,30.5300018 C100.485268,30.4900018 100.478268,30.4800018 100.443268,30.4500018 C100.408268,30.4200018 100.316268,30.3300018 100.243268,30.2600018 L100.243268,30.2600018 L100.225268,30.2300018 C100.213268,30.2200018 100.201268,30.2000018 100.189268,30.1900018 L100.115268,30.1000018 L99.9792684,29.9200018 C99.8073147,29.6928348 99.6598302,29.4481447 99.5392684,29.1900018 C99.5093655,29.0515791 99.4551965,28.9195423 99.3792684,28.8000018 L111.979268,28.8000018 L111.979268,27.0000018 L111.972268,27.0000018 Z M102.973268,22.0900018 C103.855371,22.0158848 104.73071,22.2958232 105.406112,22.8680386 C106.081514,23.440254 106.501458,24.2577085 106.573268,25.1400018 L106.573268,25.2000018 L99.3682684,25.2000018 L99.3682684,25.1400018 C99.4403512,24.2581882 99.8600859,23.4412179 100.534983,22.8691122 C101.20988,22.2970065 102.084554,22.0167155 102.966268,22.0900018 L102.973268,22.0900018 Z M198.534268,24.9700018 L198.585268,24.4200018 C198.571268,24.1600018 198.585268,23.9300018 198.547268,23.6900018 C198.412441,22.713637 198.081103,21.7747329 197.573268,20.9300018 C197.00191,20.0070764 196.187018,19.2596597 195.218268,18.7700018 C194.430249,18.37829 193.587301,18.1085468 192.718268,17.9700018 C191.117955,17.7402999 189.486998,17.8562366 187.935268,18.3100018 C187.21113,18.5096151 186.503114,18.7636719 185.817268,19.0700018 C185.477268,19.2200018 185.145268,19.3800018 184.817268,19.5500018 L184.325268,19.8200018 L184.076268,19.9600018 L183.947268,20.0400018 C183.882242,20.0929726 183.852803,20.1781882 183.871268,20.2600018 L185.679268,23.2300018 C185.742268,23.3400018 185.792268,23.3400018 185.814268,23.3200018 L185.900268,23.2800018 L186.084268,23.1900018 L186.468268,23.0300018 C186.729268,22.9200018 186.996268,22.8200018 187.268268,22.7300018 C187.796919,22.5528163 188.337213,22.4124801 188.885268,22.3100018 C189.874196,22.111461 190.894002,22.1250948 191.877268,22.3500018 C192.296138,22.452153 192.697049,22.6173729 193.066268,22.8400018 C193.252379,22.9671539 193.399239,23.1438013 193.490268,23.3500018 C193.61948,23.6472405 193.691732,23.9660982 193.703268,24.2900018 C193.707704,24.3732761 193.707704,24.4567274 193.703268,24.5400018 L193.703268,24.5800018 C193.698199,24.6012047 193.678064,24.6152585 193.656413,24.612706 C193.634762,24.6101535 193.618447,24.5918024 193.618447,24.5700018 C193.618447,24.5482011 193.634762,24.52985 193.656413,24.5272975 C193.678064,24.524745 193.698199,24.5387988 193.703268,24.5600018 L193.697268,24.7300018 L193.684268,24.9700018 L193.675268,25.1600018 C192.387211,24.3798454 190.90157,23.9875168 189.396268,24.0300018 C184.996268,24.0300018 182.490268,26.7100018 182.490268,30.0300018 C182.490268,33.3500018 185.006268,36.0300018 189.400268,36.0300018 C190.889021,36.0536517 192.355907,35.6698132 193.642268,34.9200018 L193.642268,36.0000018 L198.442268,36.0000018 L198.442268,25.9500018 L198.542268,24.9700018 L198.534268,24.9700018 Z M193.642268,30.5700018 C193.642268,31.8400018 191.929268,32.5200018 190.542268,32.5200018 C188.553268,32.5200018 186.933268,31.6500018 186.933268,29.9600018 C186.933268,28.2700018 188.555268,27.4000018 190.545268,27.4000018 C191.935268,27.4000018 193.645268,28.4400018 193.645268,29.3800018 L193.645268,30.5700018 L193.642268,30.5700018 Z M38.0132684,20.3700018 L50.1502684,13.0700018 C45.5772698,5.48733272 37.5790147,0.626659201 28.7422684,0.0600017501 C32.1803351,5.56360209 34.9711644,11.44592 37.0592684,17.5900018 L38.0132684,20.3700018 L38.0132684,20.3700018 Z M23.8722684,13.6000018 L27.7722684,14.3700018 C30.8344551,14.5440709 33.7284463,15.8273663 35.9132684,17.9800018 C33.768645,11.6651868 30.8711043,5.63172136 27.2832684,0.0100017501 C27.1832684,0.0100017501 27.0922684,1.75008245e-06 26.9952684,1.75008245e-06 C17.9656118,-0.00324368678 9.53205546,4.50756249 4.52226845,12.0200018 C5.47326845,11.9800018 6.43326845,11.9600018 7.39226845,11.9600018 C12.9270093,11.9729436 18.4474732,12.5221769 23.8762684,13.6000018 L23.8722684,13.6000018 Z M16.4822684,19.9000018 C16.9330167,19.2276605 17.4488358,18.6013088 18.0222684,18.0300018 C19.5808058,16.474963 21.5189294,15.3545608 23.6442684,14.7800018 C18.2917686,13.717736 12.8491386,13.1752144 7.39226845,13.1600018 C6.19226845,13.1600018 4.97560178,13.1900018 3.74226845,13.2500018 C-0.87201823,21.0887274 -1.24166896,30.7206835 2.75826845,38.8900018 C5.82854285,33.1524301 9.55338887,27.7899941 13.8582684,22.9100018 L16.4872684,19.9000018 L16.4822684,19.9000018 Z M15.3872684,32.0800018 C14.23597,29.4381101 14.0149257,26.483802 14.7602684,23.7000018 C10.333729,28.720446 6.52984359,34.2572163 3.43126845,40.1900018 C4.64276651,42.3516157 6.14510837,44.3367931 7.89626845,46.0900018 C12.4987046,50.7140933 18.629198,53.5014892 25.1392684,53.9300018 C21.685162,48.3832683 18.888347,42.4533762 16.8052684,36.2600018 L15.3872684,32.0800018 L15.3872684,32.0800018 Z M30.1362684,40.4000018 L26.1992684,39.6400018 C23.1174593,39.4586981 20.2093155,38.1528266 18.0262684,35.9700018 C17.9962684,35.9400018 17.9722684,35.9100018 17.9432684,35.8800018 C20.0851512,42.2431178 22.9885545,48.3239128 26.5902684,53.9900018 C26.7272684,53.9900018 26.8622684,54.0000018 26.9992684,54.0000018 C36.0636321,54.0157627 44.5270689,49.4677507 49.5162684,41.9000018 C48.4452684,41.9500018 47.3602684,41.9700018 46.2772684,41.9700018 C40.8595183,41.9557522 35.4552105,41.4300869 30.1362684,40.4000018 L30.1362684,40.4000018 Z M35.9742684,35.9700018 C34.4203505,37.5254026 32.4856444,38.6460218 30.3632684,39.2200018 C35.6070565,40.2382547 40.9355469,40.7572418 46.2772684,40.7700018 C47.4772684,40.7700018 48.7062684,40.7500018 49.9482684,40.6900018 L37.8942684,33.5000018 C37.3571237,34.39837 36.7123583,35.2278337 35.9742684,35.9700018 L35.9742684,35.9700018 Z"></path>
                    </g>
                </g>
            </g>
        </g>
    </g>
</svg>