<?xml version="1.0" encoding="UTF-8"?>
<svg width="64px" height="64px" viewBox="0 0 64 64" version="1.1" xmlns="http://www.w3.org/2000/svg" xmlns:xlink="http://www.w3.org/1999/xlink">
    <!-- Generator: sketchtool 54.1 (76490) - https://sketchapp.com -->
    <title>E46C9950-8F5F-43F5-8DEE-19E45C5D91A3</title>
    <desc>Created with sketchtool.</desc>
    <defs>
        <linearGradient x1="50%" y1="100%" x2="50%" y2="3.061617e-15%" id="linearGradient-1">
            <stop stop-color="#7F5692" offset="0%"></stop>
            <stop stop-color="#DC6E69" offset="100%"></stop>
        </linearGradient>
    </defs>
    <g id="Page-1" stroke="none" stroke-width="1" fill="none" fill-rule="evenodd">
        <g id="FC-Landing-Page-Desktop" transform="translate(-1198.000000, -1504.000000)" fill="url(#linearGradient-1)" fill-rule="nonzero">
            <g id="section-problems" transform="translate(0.000000, 1080.000000)">
                <g id="Group" transform="translate(200.000000, 320.000000)">
                    <g id="Group-23" transform="translate(860.000000, 0.000000)">
                        <g id="Stacked-Group" transform="translate(138.000000, 104.000000)">
                            <path d="M10.5554517,8.24755315 C13.3089781,5.76077476 16.49579,3.75889496 20.0153314,2.33690794 C36.3967274,-4.28160567 55.042191,3.63364776 61.6611393,20.0161196 C64.9721494,28.2111572 64.7278577,37.2272599 61.1735146,45.129189 C60.7920448,45.9772634 59.7953208,46.3554754 58.947269,45.9739486 C58.0992174,45.5924221 57.720978,44.5956334 58.1024478,43.7475593 C61.2839951,36.6744201 61.502432,28.6125452 58.5389145,21.2775822 C52.6166971,6.6195796 35.9339138,-0.462489253 21.2768753,5.45933871 C18.2409885,6.6859166 15.4847016,8.39220024 13.0854026,10.5035867 L20.7334843,10.2366717 L20.8510836,13.602242 L7.38946145,14.0720471 L6.9190631,0.6097664 L10.2844686,0.492315093 L10.5554517,8.24755315 Z M53.4418838,55.7548675 C50.6893478,58.2401853 47.503437,60.2414168 43.9846658,61.6630926 C27.6032699,68.2816062 8.95780617,60.3663527 2.33885725,43.9838793 C-0.974671745,35.7826072 -0.727410828,26.7591248 2.83437571,18.8532774 C3.21635232,18.0054311 4.21330228,17.6278151 5.06112584,18.0098483 C5.9089494,18.3918816 6.2865931,19.388896 5.9046165,20.2367423 C2.71640333,27.3133948 2.49531149,35.3818771 5.46108266,42.7224183 C11.3833002,57.380421 28.0660833,64.4624898 42.7231219,58.5406618 C45.7682174,57.3103634 48.5318317,55.5974891 50.9357917,53.4777576 L43.2631449,53.7455298 L43.1455453,50.3799597 L56.6071678,49.9101545 L57.0775659,63.3724354 L53.7121602,63.4898865 L53.4418838,55.7548675 Z M30.8566879,37.6744971 L30.1398621,20.2670164 L34.9187005,20.2670164 L34.2018747,37.6744971 L30.8566879,37.6744971 Z M32.5292813,44.7740186 C30.9932261,44.7740186 29.8667856,43.7159169 29.8667856,42.1458304 C29.8667856,40.6098762 30.9932261,39.5176421 32.5292813,39.5176421 C34.0994711,39.5176421 35.191777,40.6098762 35.191777,42.1458304 C35.191777,43.7159169 34.0994711,44.7740186 32.5292813,44.7740186 Z" id="Combined-Shape"></path>
                        </g>
                    </g>
                </g>
            </g>
        </g>
    </g>
</svg>