<?xml version="1.0" encoding="UTF-8"?>
<svg width="151px" height="40px" viewBox="0 0 151 40" version="1.1" xmlns="http://www.w3.org/2000/svg" xmlns:xlink="http://www.w3.org/1999/xlink">
    <!-- Generator: sketchtool 54.1 (76490) - https://sketchapp.com -->
    <title>E7EE6FFE-B955-4DFC-AD17-4225F34FF644</title>
    <desc>Created with sketchtool.</desc>
    <g id="Page-1" stroke="none" stroke-width="1" fill="none" fill-rule="evenodd">
        <g id="FC-Landing-Page-Desktop" transform="translate(-371.000000, -956.000000)" fill="#FFFFFF">
            <g id="supporters" transform="translate(371.000000, 877.000000)">
                <g id="PR-logos-1" transform="translate(0.000000, 72.000000)">
                    <g id="forbes" transform="translate(0.000000, 7.000000)">
                        <path d="M43.1829414,38.8583568 C44.9281016,38.4901284 46.5745623,37.7543146 48.0124387,36.7000236 C51.3494553,34.2166904 53.1748034,30.4083572 53.344157,25.5833575 C53.5110078,20.8333577 52.0735879,16.7833579 49.2955216,14.1750247 C47.0430354,12.0500248 44.199063,11.0333582 40.525842,11.0333582 C37.0126518,10.8875356 33.595513,12.1995571 31.0845878,14.658358 C28.4145063,17.4760653 26.9907193,21.2478189 27.1335601,25.1250242 C27.1335601,29.5333573 28.3682563,33.0916904 30.7633999,35.583357 C31.9814476,36.8937 33.512145,37.8742375 35.2124773,38.4333568 C36.1494163,38.7380372 37.1110108,38.9610928 38.0864828,39.1000235 C38.2349801,39.1250235 39.2360851,39.1333568 40.3089359,39.1083568 C41.2731505,39.1285068 42.2367276,39.0446885 43.1829414,38.8583568 L43.1829414,38.8583568 L43.1829414,38.8583568 Z M39.0683996,37.3166918 C37.287267,36.5166918 36.0242062,34.0666917 35.3910074,30.1833583 C34.9820321,26.663124 34.957416,23.1089077 35.317593,19.5833581 C35.8306593,15.8250246 36.9160239,13.6000246 38.6045543,12.8500246 C39.904009,12.3621939 41.3673269,12.6385933 42.3987421,13.5666912 C44.6904382,15.633358 45.8467144,21.5083581 45.3478305,28.5416916 C44.9899354,33.5916917 43.8912227,36.3333585 41.8439631,37.2833585 C40.9534234,37.6272811 39.9686328,37.6391151 39.0700681,37.3166918 L39.0700681,37.3166918 L39.0683996,37.3166918 Z M128.639767,21.6916911 C128.139214,16.833358 126.166203,13.4833582 122.813336,11.8083583 C119.835048,10.3166917 115.234137,10.4250251 111.868756,12.0583583 C108.672264,13.6183595 106.275758,16.4440874 105.260629,19.8500245 C104.621539,21.747841 104.358306,23.751757 104.485607,25.7500242 C104.47547,26.7842748 104.567122,27.8170168 104.759242,28.8333574 C106.016463,34.4333571 109.864043,38.2416902 115.244148,39.2083568 L115.244148,39.2083568 C116.927569,39.4194644 118.630637,39.4222634 120.314745,39.2166901 C122.060318,38.9022964 123.730464,38.260424 125.236844,37.3250236 C126.754352,36.3000236 128.310236,34.758357 128.310236,34.2833571 C128.213917,33.8688319 127.93908,33.5180394 127.559408,33.3250238 C127.225982,33.4408707 126.910799,33.60362 126.623374,33.8083571 C125.178582,34.7557638 123.473216,35.2278205 121.746325,35.158357 C119.427859,35.3167059 117.160162,34.4300732 115.565336,32.7416905 C114.959163,32.1819915 114.45772,31.518842 114.084535,30.7833573 C113.180811,28.9753421 112.696087,26.9873218 112.666303,24.9666909 L112.635435,24.016691 L120.660126,23.991691 L128.685651,23.966691 L128.720689,23.4250243 C128.729351,22.8461352 128.702326,22.2672625 128.639767,21.6916911 L128.639767,21.6916911 Z M119.625643,21.7833582 C117.361478,21.9083582 112.499444,21.9750249 112.440212,21.8833582 L112.440212,21.8833582 C112.447907,20.8559313 112.555474,19.8316793 112.7614,18.8250249 C113.244433,16.4250249 114.012781,14.6833583 115.080627,13.6166916 C115.415885,13.1974124 115.868275,12.887064 116.380395,12.725025 C116.642951,12.6384683 116.913914,12.5798106 117.188787,12.550025 C117.757985,12.582844 118.297122,12.816094 118.710467,13.2083583 C119.883428,14.2833583 120.554168,16.6000249 120.687649,20.0333582 L120.753555,21.7250249 L119.625643,21.7833582 Z M142.083768,39.0083569 C146.691354,38.3083569 149.666304,35.8416903 150.446332,32.0833571 C150.831956,30.3447167 150.674428,28.5297608 149.995,26.8833572 C149.081492,24.9916906 147.536453,23.850024 143.710564,22.2333574 C140.869094,21.0333574 139.165547,20.0250241 138.46811,19.1083575 C137.92324,18.4543953 137.652435,17.6154088 137.712276,16.7666909 C137.640253,15.4163961 138.280385,14.1267979 139.399972,13.366691 C140.427117,12.7445661 141.670311,12.5870668 142.820414,12.9333577 C144.443873,13.3083577 145.665221,14.3083576 146.768105,16.1416909 C147.321867,17.1857237 147.797577,18.269234 148.191343,19.3833575 C148.245569,19.5416908 148.308973,19.5500241 148.691895,19.4333575 C148.870001,19.3914591 149.041119,19.3240978 149.199956,19.2333575 C149.240834,19.1916908 149.237497,17.6416908 149.193282,15.7916909 L149.109857,12.416691 L148.716089,12.2500244 C147.563505,11.8390626 146.380551,11.5186439 145.178017,11.291691 C143.976316,11.1076195 142.759265,11.0434145 141.54484,11.1000244 C139.136348,11.1000244 138.939464,11.1166911 137.944199,11.3833577 C135.30782,11.968899 133.059676,13.6768934 131.79074,16.0583576 C131.217569,17.1601121 130.943992,18.3928651 130.997364,19.6333575 C130.914384,21.4470118 131.568774,23.2171748 132.811867,24.5416906 C134.169217,25.8615938 135.826225,26.8337144 137.641365,27.3750239 C139.240855,27.9205521 140.760144,28.6772563 142.158851,29.6250238 C142.575585,29.9619534 142.921005,30.378379 143.174972,30.8500238 C143.507782,31.3750493 143.641264,32.0018082 143.551221,32.6166904 C143.624287,33.2403885 143.504335,33.8714766 143.207508,34.4250237 C142.37139,36.168588 140.486873,37.1552404 138.575729,36.8500236 C135.641657,36.6083569 133.576044,34.6750237 131.894188,30.5833571 C131.456204,29.5166905 131.426171,29.5000238 130.758768,29.7500238 L130.452596,29.8666905 L130.529348,33.6750237 C130.597757,37.0583569 130.626121,37.5083569 130.787967,37.6250236 C131.270166,38.0000235 134.39111,38.7333569 136.556834,38.9916902 C138.394454,39.1930506 140.248302,39.1986375 142.087105,39.0083569 L142.087105,39.0083569 L142.083768,39.0083569 Z M0.157952361,38.6583588 C0.0156330117,38.4174864 -0.0327824051,38.1326551 0.0219689337,37.8583587 C0.0219689337,36.9583587 -0.0347603491,37.0000254 1.70299106,36.6750254 C2.65361858,36.6378739 3.53606428,36.1720057 4.10230602,35.4083587 C5.24356571,33.916692 5.49050494,31.0416919 5.4930077,19.200025 C5.4930077,8.08335813 5.28027289,5.75002475 4.09980326,4.03335805 C3.57589165,3.26669137 2.69325075,2.85835803 1.21495238,2.67502469 L0.0761954539,2.54169135 L0.0453280501,1.658358 L0.0136263921,0.766691317 L0.370687172,0.708357982 C0.566736899,0.666691315 7.46184751,0.658357981 15.689262,0.675024648 L30.6516103,0.700024649 L30.7216877,1.13335799 C30.7608976,1.37502466 30.8234667,3.81669138 30.8626766,6.5583581 L30.9335882,11.5500249 L30.1619032,11.7916915 C29.0006214,12.1416916 29.0072954,12.1416916 28.4850523,10.7666915 C27.2019694,7.37502479 25.7320136,5.42502475 23.7172898,4.44169139 C22.3290909,3.75835804 21.6867152,3.67502471 17.7657206,3.67502471 L14.3519526,3.67502471 L14.2927206,4.25002472 C14.182599,5.30835808 14.0082399,12.1666916 14.0099084,15.3916916 L14.0099084,18.6083584 L15.0110134,18.600025 C15.5632896,18.600025 16.6511571,18.5583583 17.4303504,18.5166917 C18.1168101,18.5378722 18.8001485,18.4158301 19.4367317,18.1583583 C20.6388919,17.600025 21.456461,16.375025 21.9578478,14.3916916 L22.2164666,13.3583582 L23.1016102,13.3333582 L23.9867539,13.3000249 L23.9867539,26.3000252 L23.1016102,26.2666918 L22.2156323,26.2333585 L21.9653561,25.2083585 C21.4931682,23.2750251 20.5846654,21.8916918 19.4625936,21.4000251 C18.9445217,21.1666917 17.6606046,21.0416917 15.1778642,20.9666917 L14.0099084,20.9333584 L14.0099084,23.3750251 C14.0099084,26.0333585 14.1567371,29.6333586 14.3436101,31.5833586 C14.6055659,34.3083587 15.3038366,35.816692 16.5560521,36.3583587 C17.1037656,36.5364116 17.667204,36.661978 18.2387427,36.7333587 C18.7230232,36.7979545 19.2028117,36.8925817 19.6753284,37.0166921 C19.9440952,37.5324025 19.950911,38.1451437 19.693682,38.6666921 C19.4884555,38.7500254 0.350665072,38.7416921 0.155449599,38.6583588 L0.155449599,38.6583588 L0.157952361,38.6583588 Z M69.6438173,37.8250248 L69.6438173,37.2333581 L68.8028892,37.1666914 C66.8649168,37.0000248 66.3334969,36.8083581 65.8246019,36.0750247 C65.086287,35.0166914 64.9261102,33.0583581 64.9261102,25.133358 L64.9261102,18.9500246 L65.19474,18.6666913 C65.823246,18.1666635 66.5590642,17.8186979 67.3446129,17.6500246 C69.0407068,17.3542942 70.7869589,17.5991935 72.3359554,18.3500246 C72.6027042,18.4920049 72.8819662,18.6091655 73.1702096,18.7000246 C73.2152593,18.6500246 75.715519,12.0583579 75.7931046,11.7833579 C75.8281433,11.6583579 75.6846516,11.5416912 75.2641875,11.3750246 C74.4142088,11.0238824 73.4932135,10.8782619 72.5762206,10.9500246 C69.8832483,11.1083579 67.4931102,12.8916913 65.7712096,16.0333579 C65.6131797,16.3883407 65.3899129,16.7105756 65.1129831,16.983358 C65.0028615,16.983358 64.9903477,16.3833579 65.0495798,14.0000246 L65.1238284,11.0250246 L64.8618726,11.0833579 C64.7183809,11.1166912 62.5509886,11.5583579 60.0457234,12.0583579 C54.6731268,13.1333579 53.9264693,13.2916913 53.7988284,13.3666913 C53.7200652,13.4967048 53.6860765,13.6488997 53.702055,13.8000246 C53.702055,14.2083579 53.6545025,14.1833579 54.8750163,14.3833579 C56.5535356,14.6500246 57.1458561,15.4666913 57.3961323,17.8500246 C57.7223257,20.9666913 57.592182,33.0916914 57.2142649,34.7500247 C57.0693295,35.524324 56.6444315,36.2183589 56.0204472,36.7000248 C55.603583,36.8794418 55.1666352,37.0081431 54.7190108,37.0833581 L53.7562815,37.2750248 L53.7237456,37.8416914 L53.6912097,38.4083581 L69.6438173,38.4083581 L69.6438173,37.8250248 L69.6438173,37.8250248 L69.6438173,37.8250248 Z M102.088794,20.5000245 C101.004263,15.5583579 97.9175229,12.1500246 93.7395782,11.2916912 C92.9273148,11.1478587 92.0999413,11.1086501 91.2776943,11.1750246 C89.7065107,11.1744584 88.153396,11.5097427 86.7226667,12.1583579 C86.2588214,12.3750245 85.8542082,12.5500245 85.8233408,12.5500245 C85.7924734,12.5500245 85.7966446,9.72502457 85.8333518,6.27502459 C85.8850756,1.40835796 85.8708932,2.46379193e-05 85.7699485,2.46379193e-05 C85.417059,-0.00830869535 74.3406669,2.10002462 74.2197,2.19169129 C74.1018618,2.39273494 74.063479,2.6305054 74.1120813,2.85835795 C74.1479542,3.46669128 74.0745398,3.41669128 75.424363,3.72502461 C75.7944598,3.80156648 76.1508285,3.9336173 76.481363,4.11669128 C77.0558951,4.64742592 77.4374239,5.35394082 77.5658934,6.12502459 C77.7702856,6.90835792 77.797816,7.46669125 77.892921,12.7666912 C77.9888602,18.1750245 77.9705066,23.7416911 77.8211751,33.9333577 L77.7594403,38.166691 L78.5536503,38.341691 C79.7024182,38.6083577 82.9902137,39.1500244 84.0655673,39.2583577 L84.0655673,39.2583577 C86.204395,39.4151384 88.3522425,39.403993 90.4893241,39.2250244 C95.3047034,38.6685208 99.4209774,35.506144 101.195307,31.0000244 C101.723858,29.5795448 102.087741,28.1032516 102.279838,26.6000244 C102.456042,24.5662483 102.391919,22.5188218 102.088794,20.5000245 L102.088794,20.5000245 Z M94.0082041,28.4000251 C93.5076516,31.5500251 92.6024858,33.9833584 91.3385908,35.550025 C90.7006161,36.3321192 89.8634244,36.9280138 88.9150824,37.275025 C88.0609576,37.4373477 87.1866977,37.4654641 86.3238889,37.3583584 L86.3238889,37.3583584 C86.1351918,37.3473724 85.9540097,37.2806643 85.8033143,37.1666917 C85.6172756,36.9416917 85.4162204,22.2583585 85.53969,17.9583586 L85.638132,14.5500253 L86.5057563,14.3000253 C87.6983629,13.9292744 88.9826744,13.9822743 90.1406018,14.4500253 C92.1019333,15.3833586 93.3941931,17.6750252 94.0615964,21.4250252 C94.2715258,23.7462023 94.2536432,26.0823261 94.0082041,28.4000251 L94.0082041,28.4000251 Z"></path>
                    </g>
                </g>
            </g>
        </g>
    </g>
</svg>