<?xml version="1.0" encoding="UTF-8"?>
<svg width="210px" height="49px" viewBox="0 0 210 49" version="1.1" xmlns="http://www.w3.org/2000/svg" xmlns:xlink="http://www.w3.org/1999/xlink">
    <!-- Generator: Sketch 54.1 (76490) - https://sketchapp.com -->
    <title>hollywood-reporter</title>
    <desc>Created with Sketch.</desc>
    <g id="Page-1" stroke="none" stroke-width="1" fill="none" fill-rule="evenodd">
        <g id="FC-Landing-Page-Desktop" transform="translate(-372.000000, -949.000000)" fill="#FFFFFF">
            <g id="supporters" transform="translate(371.000000, 877.000000)">
                <g id="PR-logos-2" transform="translate(1.000000, 68.000000)">
                    <path d="M122.24,48.5109161 L122.91,46.3313609 L117.71,46.3313609 L118.35,44.3017751 L124.67,44.3017751 L125.34,42.0922261 L115.97,42.0922261 L112.68,52.8400326 L122.05,52.8400326 L122.72,50.6304836 L116.38,50.6304836 L117.04,48.5109161 L122.24,48.5109161 L122.24,48.5109161 Z M109,42.0922261 L103.31,42.0922261 L100.02,52.8400326 L103.06,52.8400326 L104.19,49.1407876 L106.31,49.1407876 L107.89,52.8400326 L111.11,52.8400326 L109.19,48.8708427 C110.783299,48.7141085 112.125243,47.6131495 112.59,46.081412 L112.67,45.821465 C113.36,43.5619261 111.94,42.0922261 109,42.0922261 L109,42.0922261 Z M109.59,45.581514 L109.57,45.6714956 C109.23,46.7512752 108.45,47.1211998 107.21,47.1211998 L104.8,47.1211998 L105.73,44.1118139 L108.37,44.1118139 C109.5,44.1118139 109.89,44.6217099 109.59,45.581514 L109.59,45.581514 Z M158,42.0922261 L152.31,42.0922261 L149.02,52.8400326 L152.06,52.8400326 L153.19,49.1407876 L155.31,49.1407876 L156.89,52.8400326 L160.11,52.8400326 L158.19,48.8708427 C159.783299,48.7141085 161.125243,47.6131495 161.59,46.081412 L161.67,45.821465 C162.36,43.5619261 160.94,42.0922261 158,42.0922261 L158,42.0922261 Z M158.59,45.581514 L158.57,45.6714956 C158.23,46.7512752 157.45,47.1211998 156.21,47.1211998 L153.81,47.1211998 L154.73,44.1118139 L157.37,44.1118139 C158.51,44.1118139 158.89,44.6217099 158.59,45.581514 L158.59,45.581514 Z M182.12,48.5109161 L182.78,46.3313609 L177.59,46.3313609 L178.22,44.3017751 L184.54,44.3017751 L185.22,42.0922261 L175.85,42.0922261 L172.56,52.8400326 L181.93,52.8400326 L182.6,50.6304836 L176.26,50.6304836 L176.92,48.5109161 L182.12,48.5109161 L182.12,48.5109161 Z M132.93,42.0922261 L127.62,42.0922261 L124.33,52.8400326 L127.37,52.8400326 L128.4,49.4607223 L131.53,49.4607223 C134.51,49.4607223 135.99,48.4709243 136.66,46.3013671 L136.77,45.9214446 C137.44,43.7618853 136.36,42.0922261 132.93,42.0922261 L132.93,42.0922261 Z M133.66,45.7514793 L133.59,45.9914303 C133.28,47.0112222 132.51,47.4411345 131.22,47.4411345 L129.02,47.4411345 L130.04,44.1118139 L132.4,44.1118139 C133.68,44.1118139 134.02,44.5717201 133.66,45.7514793 L133.66,45.7514793 Z M173.48,44.3017751 L174.15,42.102224 L163.68,42.102224 L163,44.3017751 L166.79,44.3017751 L164.17,52.8400326 L167.23,52.8400326 L169.84,44.3017751 L173.48,44.3017751 Z M193.12,42.0922261 L187.43,42.0922261 L184.14,52.8400326 L187.18,52.8400326 L188.31,49.1407876 L190.39,49.1407876 L192,52.8400326 L195.23,52.8400326 L193.31,48.8708427 C194.903299,48.7141085 196.245243,47.6131495 196.71,46.081412 L196.79,45.821465 C197.48,43.5619261 196.06,42.0922261 193.12,42.0922261 L193.12,42.0922261 Z M193.71,45.581514 L193.69,45.6714956 C193.35,46.7512752 192.57,47.1211998 191.33,47.1211998 L188.92,47.1211998 L189.85,44.1118139 L192.49,44.1118139 C193.62,44.1118139 194.01,44.6217099 193.71,45.581514 L193.71,45.581514 Z M144.46,41.862273 C140.76,41.862273 138.79,43.2119976 137.85,46.2813711 L137.56,47.2411753 C136.4,51.0004081 138.57,52.8300347 141.93,52.8300347 C145.64,52.8300347 147.6,51.4903081 148.55,48.4209345 L148.83,47.4611304 C149.99,43.6918996 147.83,41.862273 144.46,41.862273 L144.46,41.862273 Z M146.03,46.7812691 L145.58,48.2309733 C145.311635,49.6920999 143.968873,50.7043967 142.49,50.5604979 C140.57,50.5604979 139.88,49.540706 140.36,47.9310345 L140.82,46.4613344 C141.087233,45.0038491 142.424497,43.9924241 143.9,44.1318098 C145.83,44.1318098 146.52,45.1615997 146.03,46.7812691 L146.03,46.7812691 Z M111.92,5.93960416 L112.47,4.14996939 L105.83,4.14996939 L103.3,12.418282 L109.94,12.418282 L110.49,10.6286472 L106.23,10.6286472 L106.68,9.17894307 L110.05,9.17894307 L110.59,7.40930422 L107.23,7.40930422 L107.69,5.93960416 L111.92,5.93960416 Z M94.86,5.93960416 L95.41,4.14996939 L87.9,4.14996939 L87.36,5.93960416 L90.04,5.93960416 L88.05,12.418282 L90.44,12.418282 L92.42,5.93960416 L94.86,5.93960416 L94.86,5.93960416 Z M101.74,4.14996939 L100.77,7.30932463 L98.02,7.30932463 L98.99,4.14996939 L96.6,4.14996939 L94.06,12.418282 L96.46,12.418282 L97.48,9.07896348 L100.23,9.07896348 L99.2,12.418282 L101.6,12.418282 L104.13,4.14996939 L101.74,4.14996939 Z M150.52,14.8277902 C143.4,14.8277902 137.3,22.2162824 137.3,29.8047337 C137.3,35.3835952 141.21,39.2628035 145.46,39.2628035 C152.58,39.2628035 158.69,31.8743114 158.69,24.295858 C158.69,18.7069986 154.77,14.8277902 150.52,14.8277902 L150.52,14.8277902 Z M148.58,37.1232402 C147.688255,38.1304302 146.41515,38.7178975 145.07,38.7429096 C143,38.7429096 141.51,37.4731687 141.51,33.6139563 C141.51,29.1448684 143.86,20.4966333 147.4,16.9673536 C148.293009,15.9631673 149.566199,15.3792876 150.91,15.3576821 C152.98,15.3576821 154.47,16.617425 154.47,20.4866354 C154.47,24.9557233 152.12,33.5939604 148.58,37.1232402 L148.58,37.1232402 Z M47.76,14.8277902 C40.65,14.8277902 34.55,22.2162824 34.55,29.8047337 C34.55,35.3835952 38.46,39.2628035 42.71,39.2628035 C49.83,39.2628035 55.93,31.8743114 55.93,24.295858 C55.93,18.7069986 52.01,14.8277902 47.76,14.8277902 L47.76,14.8277902 Z M45.83,37.1232402 C44.9369874,38.1287237 43.6646737,38.7158256 42.32,38.7429096 C40.25,38.7429096 38.76,37.4731687 38.76,33.6139563 C38.76,29.1448684 41.11,20.4966333 44.65,16.9673536 C45.5415812,15.9612395 46.8156695,15.3769479 48.16,15.3576821 C50.22,15.3576821 51.71,16.617425 51.71,20.4866354 C51.71,24.9557233 49.37,33.5939604 45.83,37.1232402 L45.83,37.1232402 Z M173.19,14.8277902 C166.08,14.8277902 159.97,22.2162824 159.97,29.8047337 C159.97,35.3835952 163.89,39.2628035 168.14,39.2628035 C175.26,39.2628035 181.36,31.8743114 181.36,24.295858 C181.36,18.7069986 177.44,14.8277902 173.19,14.8277902 L173.19,14.8277902 Z M171.26,37.1232402 C170.366987,38.1287237 169.094674,38.7158256 167.75,38.7429096 C165.68,38.7429096 164.19,37.4731687 164.19,33.6139563 C164.19,29.1448684 166.54,20.4966333 170.08,16.9673536 C170.971581,15.9612395 172.24567,15.3769479 173.59,15.3576821 C175.65,15.3576821 177.14,16.617425 177.14,20.4866354 C177.14,24.9557233 174.8,33.5939604 171.26,37.1232402 L171.26,37.1232402 Z M133.61,14.9677617 C132.157491,14.9539574 130.968807,16.1200176 130.955,17.5722302 C130.941193,19.0244427 132.107491,20.2128841 133.56,20.2266884 C134.687066,20.2350863 135.693499,19.5226768 136.06,18.4570496 C136.162132,19.0278879 136.212337,19.6068021 136.21,20.1866966 C136.21,28.1750663 129.35,38.3829831 124.33,38.3829831 C122.65,38.3829831 121.49,37.3531932 123.07,32.8341155 L128.45,15.4276678 L123.55,15.4276678 L120.07,26.7253622 C117.52,34.8037135 113.75,38.3829831 111.53,38.3829831 C109.98,38.3829831 109.05,37.2732095 110.25,33.4039992 L115.71,15.4276678 L115.59,15.2776984 C114.69,15.3476841 112.62,15.4276678 110.14,15.4276678 L107.23,15.4276678 L106.9,15.7376046 L107.07,15.9275658 L110.64,15.9275658 L106.12,30.6745562 C104.39,36.2734136 107.01,39.2628035 110.88,39.2628035 C113.63,39.2628035 116.57,36.2334218 118.68,31.6343603 C117.72,36.3134054 120,39.2628035 123.4,39.2628035 C130.49,39.2628035 136.88,27.6951643 136.88,19.9767394 C136.88,16.2475005 135.48,14.9677617 133.61,14.9677617 L133.61,14.9677617 Z M33.19,38.1730259 L28.61,38.1730259 L38.88,4.64986737 L43.08,4.64986737 L43.4,4.34992859 L43.23,4.14996939 L29.54,4.14996939 L29.22,4.44990818 L29.39,4.64986737 L33.62,4.64986737 L28.6,21.0165272 L15.04,21.0165272 L20.06,4.64986737 L23.9,4.64986737 L24.23,4.34992859 L24.06,4.14996939 L10.37,4.14996939 L10.05,4.44990818 L10.22,4.64986737 L14.79,4.64986737 L4.53,38.1730259 L0.32,38.1730259 L0,38.4729647 L0.17,38.6729239 L13.86,38.6729239 L14.18,38.3629871 L14.01,38.1730259 L9.79,38.1730259 L14.89,21.5164252 L28.45,21.5164252 L23.35,38.1730259 L19.5,38.1730259 L19.18,38.4729647 L19.35,38.6729239 L33.03,38.6729239 L33.36,38.3629871 L33.19,38.1730259 Z M67.58,30.4346052 L67.33,30.6045705 C64.47,37.1432361 62.89,38.1830239 61.86,38.1830239 C60.83,38.1830239 60.29,37.4631708 61.32,34.0038768 L70.45,4.14996939 L70.33,4 C69.43,4.06998572 67.36,4.14996939 64.88,4.14996939 L61.97,4.14996939 L61.64,4.44990818 L61.81,4.64986737 L65.38,4.64986737 L57.04,31.8943073 C55.67,36.8832891 57.54,39.2628035 60.77,39.2628035 C62.79,39.2628035 64.83,37.9230769 67.8,30.7545399 L67.58,30.4346052 Z M80.07,30.4346052 L79.82,30.6045705 C76.96,37.1432361 75.38,38.1830239 74.35,38.1830239 C73.32,38.1830239 72.78,37.4631708 73.81,34.0038768 L82.94,4.14996939 L82.82,4 C81.92,4.06998572 79.85,4.14996939 77.37,4.14996939 L74.46,4.14996939 L74.13,4.44990818 L74.3,4.64986737 L77.87,4.64986737 L69.53,31.8943073 C68.16,36.8832891 70.03,39.2628035 73.26,39.2628035 C75.27,39.2628035 77.32,37.9230769 80.29,30.7545399 L80.07,30.4346052 Z M96.82,25.4456233 C93.89,34.9936748 90.13,38.3829831 87.82,38.3829831 C86.25,38.3829831 85.44,37.1432361 86.35,34.0038768 L91.97,15.4276678 L91.85,15.2776984 C90.95,15.3476841 88.88,15.4276678 86.4,15.4276678 L83.48,15.4276678 L83.16,15.7276066 L83.33,15.9275658 L86.9,15.9275658 L82.37,30.6345644 C80.64,36.3733932 83.31,39.2628035 87.15,39.2628035 C89.79,39.2628035 92.62,36.7433177 94.87,31.8843093 L91.14,43.9018568 C89.12,50.6104877 86.72,52.4801061 84.15,52.4801061 C81.41,52.4801061 79.4,51.5302999 78.53,50.040604 C79.0049201,50.4573063 79.6182325,50.681904 80.25,50.6704754 C81.7825902,50.6759971 83.0294772,49.4383171 83.035,47.9060396 C83.0405228,46.3737621 81.8025902,45.1271296 80.27,45.1216078 C79.4885657,45.1380761 78.7472552,45.4708365 78.2156985,46.0437452 C77.6841418,46.6166539 77.4078336,47.3806772 77.45,48.1609876 C77.45,50.9004285 80.18,53 84.08,53 C89.02,53 94.04,50.5604979 96.63,42.0922261 L104.8,15.4276678 L99.89,15.4276678 L96.82,25.4456233 Z M210,4.14996939 L209.87,4 C208.98,4.06998572 206.91,4.14996939 204.43,4.14996939 L201.51,4.14996939 L201.19,4.44990818 L201.36,4.64986737 L204.93,4.64986737 L200.36,19.6268109 C200.24,16.6874107 198.45,14.8277902 195.86,14.8277902 C189.43,14.8277902 182.52,22.9061416 182.52,30.5745766 C182.52,36.5833503 185.89,39.2628035 188.98,39.2628035 C191.67,39.2628035 194.46,37.17323 196.46,33.0340747 C195.68,37.3231993 197.53,39.2628035 200.32,39.2628035 C202.34,39.2628035 204.38,37.9230769 207.35,30.7545399 L207.13,30.4346052 L206.87,30.6045705 C204.02,37.1432361 202.43,38.1830239 201.4,38.1830239 C200.39,38.1830239 199.83,37.4631708 200.86,34.0038768 L210,4.14996939 Z M199.4,22.806162 L197.85,27.8351357 C195.16,36.6233422 191.42,38.7329117 189.35,38.7329117 C187.49,38.7329117 186.77,37.413181 186.77,34.3338094 C186.77,25.7155683 192.39,15.4276678 196.61,15.4276678 C198.75,15.4276678 200.77,18.2870843 199.4,22.806162 L199.4,22.806162 Z" id="hollywood-reporter"></path>
                </g>
            </g>
        </g>
    </g>
</svg>