<?xml version="1.0" encoding="UTF-8"?>
<svg width="60px" height="52px" viewBox="0 0 60 52" version="1.1" xmlns="http://www.w3.org/2000/svg" xmlns:xlink="http://www.w3.org/1999/xlink">
    <!-- Generator: Sketch 54.1 (76490) - https://sketchapp.com -->
    <title>ibc-logo</title>
    <desc>Created with Sketch.</desc>
    <g id="Page-1" stroke="none" stroke-width="1" fill="none" fill-rule="evenodd">
        <g id="FC-Landing-Page-Desktop" transform="translate(-662.000000, -948.000000)" fill="#FFFFFF">
            <g id="supporters" transform="translate(371.000000, 877.000000)">
                <g id="PR-logos-2" transform="translate(1.000000, 68.000000)">
                    <path d="M298.199495,11.0009763 C296.950421,8.80621345 298.892311,5.67801577 302.53694,4.01368873 C306.181569,2.3493617 310.148585,2.7793085 311.397835,4.97407132 C312.646909,7.16866029 310.704843,10.2970318 307.060214,11.9613589 C303.415585,13.625512 299.448569,13.1955652 298.199495,11.0009763 Z M334.57469,47.7943739 C328.276526,51.070871 322.084652,53.5740551 316.736228,54.3159002 C312.214713,54.943174 309.391538,55.1990906 305.026641,54.8279072 C299.065471,54.3211159 292.664009,52.2464878 292.687062,46.7475847 C292.727185,37.1847888 303.537185,32.2514405 314.735914,31.8063682 C319.561163,31.6147784 326.61479,31.3390422 327.348608,36.0178649 C327.702846,38.2766069 324.795027,40.5622966 322.035555,39.9953509 C318.222165,39.2116064 315.531148,36.6054994 311.037085,36.9160069 C306.28293,37.2445954 302.694438,40.210759 302.464614,44.3497576 C302.162464,49.7921574 310.117613,51.5515839 316.200559,50.9827259 C321.945631,50.4453358 326.376871,49.106294 331.458868,47.0264503 C339.061362,43.9151167 343.941867,41.6417708 350,38.3524082 L349.910428,38.4348162 C349.910428,38.4348162 340.833963,44.5382179 334.57469,47.7943739 Z M317.499082,25.9981745 C319.291921,25.3394327 323.35238,25.0398782 328.495616,25.1405411 C334.450979,25.2570248 340.718171,27.5340217 340.828508,33.0304909 C340.996565,41.4157575 327.768837,46.7242879 320.798623,47.6544195 C318.512525,47.9597113 315.981293,48.3774881 313.585035,48.3109012 C308.377567,48.1660788 306.001722,46.3591895 306.476856,43.561319 C306.860482,41.30136 308.646634,39.6825833 311.479839,39.7828985 C316.274644,39.9525823 317.425876,42.9879406 322.136565,42.8738909 C326.821913,42.7603627 331.465027,40.1309589 331.05078,35.4283179 C330.569663,29.9648815 324.058745,28.845768 318.564614,28.8534177 C313.127674,28.8608935 308.168332,29.6395962 304.927391,30.8268614 L312.485364,11.5780056 L325.803191,5.96157551 L317.499082,25.9981745 Z M302.232678,31.5137679 C302.025731,31.7114426 297.110031,33.8204942 294.795953,36.3182887 C291.340321,40.048551 290.28658,43.6663282 290.829817,48.5117053 C289.602211,44.2155405 289.844002,40.9898094 290.855333,36.3078573 C291.491484,33.3625565 292.363619,31.6335549 293.421232,28.8442033 C294.238462,27.078518 296.820903,20.5738558 296.820903,20.5738558 L290.800781,23.2354229 L292.104055,20.4241654 L309.604292,12.8659336 L302.232678,31.5137679 Z" id="ibc-logo"></path>
                </g>
            </g>
        </g>
    </g>
</svg>