<?xml version="1.0" encoding="UTF-8"?>
<svg width="63px" height="69px" viewBox="0 0 63 69" version="1.1" xmlns="http://www.w3.org/2000/svg" xmlns:xlink="http://www.w3.org/1999/xlink">
    <!-- Generator: sketchtool 54.1 (76490) - https://sketchapp.com -->
    <title>75EB52BE-657B-4ED8-8E0B-47BD9DE24F2B</title>
    <desc>Created with sketchtool.</desc>
    <defs>
        <linearGradient x1="50%" y1="100%" x2="50%" y2="3.061617e-15%" id="linearGradient-1">
            <stop stop-color="#7F5692" offset="0%"></stop>
            <stop stop-color="#DC6E69" offset="100%"></stop>
        </linearGradient>
    </defs>
    <g id="Page-1" stroke="none" stroke-width="1" fill="none" fill-rule="evenodd">
        <g id="FC-Landing-Page-Desktop" transform="translate(-1205.000000, -1826.000000)" fill="url(#linearGradient-1)" fill-rule="nonzero">
            <g id="section-problems" transform="translate(0.000000, 1080.000000)">
                <g id="Group" transform="translate(200.000000, 320.000000)">
                    <g id="Group-24" transform="translate(860.000000, 320.000000)">
                        <g id="Stacked-Group" transform="translate(145.000000, 104.000000)">
                            <path d="M47.25,19.25 C55.9339773,19.25 63,26.3440625 63,35.0625 C63,43.7809375 55.9339773,50.875 47.25,50.875 C38.5660227,50.875 31.5,43.7809375 31.5,35.0625 C31.5,26.3440625 38.5660227,19.25 47.25,19.25 Z M47.25,48 C54.3561136,48 60.1363636,42.195375 60.1363636,35.0625 C60.1363636,27.929625 54.3561136,22.125 47.25,22.125 C40.1438864,22.125 34.3636364,27.929625 34.3636364,35.0625 C34.3636364,42.195375 40.1438864,48 47.25,48 Z M45.8181818,56.625 L45.8181818,53.75 L48.6818182,53.75 L48.6818182,58.0625 L48.6818182,62.375 C48.6818182,62.7559375 48.5314773,63.1225 48.2622955,63.3913125 L41.1032045,70.5788125 C40.8354545,70.8490625 40.4717727,71 40.0909091,71 L35.7954545,71 L2.86363636,71 C1.28434091,71 0,69.7105625 0,68.125 L0,4.875 C0,3.2894375 1.28434091,2 2.86363636,2 L45.8181818,2 C47.3974773,2 48.6818182,3.2894375 48.6818182,4.875 L48.6818182,16.375 L45.8181818,16.375 L45.8181818,4.875 L2.86363636,4.875 L2.86363636,68.125 L34.3636364,68.125 L34.3636364,58.0625 C34.3636364,57.269 35.0036591,56.625 35.7954545,56.625 L45.8181818,56.625 Z M45.8181818,61.779875 L45.8181818,59.5 L37.2272727,59.5 L37.2272727,68.125 L39.4981364,68.125 L45.8181818,61.779875 Z M40.0909091,19.25 L37.2272727,19.25 L37.2272727,16.375 L11.4545455,16.375 L11.4545455,30.75 L28.6363636,30.75 L28.6363636,33.625 L10.0227273,33.625 C9.23093182,33.625 8.59090909,32.981 8.59090909,32.1875 L8.59090909,14.9375 C8.59090909,14.144 9.23093182,13.5 10.0227273,13.5 L38.6590909,13.5 C39.4508864,13.5 40.0909091,14.144 40.0909091,14.9375 L40.0909091,19.25 Z M8.59090909,39.375 L22.9090909,39.375 L22.9090909,42.25 L8.59090909,42.25 L8.59090909,39.375 Z M25.7727273,39.375 L28.6363636,39.375 L28.6363636,42.25 L25.7727273,42.25 L25.7727273,39.375 Z M8.59090909,48 L17.1818182,48 L17.1818182,50.875 L8.59090909,50.875 L8.59090909,48 Z M20.0454545,48 L34.3636364,48 L34.3636364,50.875 L20.0454545,50.875 L20.0454545,48 Z M8.59090909,56.625 L22.9090909,56.625 L22.9090909,59.5 L8.59090909,59.5 L8.59090909,56.625 Z M25.7727273,56.625 L31.5,56.625 L31.5,59.5 L25.7727273,59.5 L25.7727273,56.625 Z M51.2991818,28.9631875 L53.3237727,30.9958125 L49.2745909,35.0625 L53.3237727,39.1291875 L51.2991818,41.1618125 L47.25,37.095125 L43.2008182,41.1618125 L41.1762273,39.1291875 L45.2254091,35.0625 L41.1762273,30.9958125 L43.2008182,28.9631875 L47.25,33.029875 L51.2991818,28.9631875 Z" id="manual-process"></path>
                        </g>
                    </g>
                </g>
            </g>
        </g>
    </g>
</svg>