<?xml version="1.0" encoding="UTF-8"?>
<svg width="99px" height="10px" viewBox="0 0 99 10" version="1.1" xmlns="http://www.w3.org/2000/svg" xmlns:xlink="http://www.w3.org/1999/xlink">
    <!-- Generator: Sketch 54.1 (76490) - https://sketchapp.com -->
    <title>ASSEENIN</title>
    <desc>Created with Sketch.</desc>
    <g id="Page-1" stroke="none" stroke-width="1" fill="none" fill-rule="evenodd" opacity="0.5">
        <g id="FC-Landing-Page-Mobile" transform="translate(-138.000000, -646.000000)" fill="#FFFFFF" fill-rule="nonzero">
            <g id="main-video">
                <g id="supporters" transform="translate(0.000000, 640.000000)">
                    <g id="logos" transform="translate(18.000000, 0.000000)">
                        <path d="M120.678,15 L125.79,6.6 L127.854,6.6 L132.978,15 L131.01,15 L129.966,13.224 L123.678,13.224 L122.646,15 L120.678,15 Z M124.506,11.784 L129.138,11.784 L126.834,7.788 L124.506,11.784 Z M139.406,15.192 C136.538,15.192 134.678,14.028 134.714,12.312 L136.49,12.312 C136.478,13.128 137.486,13.752 139.274,13.752 C141.182,13.764 142.394,13.428 142.394,12.564 C142.394,10.524 134.882,12.66 134.882,9.084 C134.882,7.368 136.67,6.408 139.262,6.408 C142.01,6.408 143.846,7.536 143.87,9.288 L142.094,9.288 C142.106,8.46 141.134,7.848 139.382,7.836 C137.666,7.836 136.61,8.172 136.61,8.952 C136.61,10.812 144.11,8.82 144.11,12.504 C144.11,14.22 142.202,15.192 139.406,15.192 Z M156.018,15.192 C153.15,15.192 151.29,14.028 151.326,12.312 L153.102,12.312 C153.09,13.128 154.098,13.752 155.886,13.752 C157.794,13.764 159.006,13.428 159.006,12.564 C159.006,10.524 151.494,12.66 151.494,9.084 C151.494,7.368 153.282,6.408 155.874,6.408 C158.622,6.408 160.458,7.536 160.482,9.288 L158.706,9.288 C158.718,8.46 157.746,7.848 155.994,7.836 C154.278,7.836 153.222,8.172 153.222,8.952 C153.222,10.812 160.722,8.82 160.722,12.504 C160.722,14.22 158.814,15.192 156.018,15.192 Z M163.586,15 L163.586,6.6 L171.506,6.6 L171.506,8.028 L165.29,8.028 L165.29,10.068 L171.398,10.068 L171.398,11.4 L165.29,11.4 L165.29,13.56 L171.506,13.56 L171.506,15 L163.586,15 Z M174.766,15 L174.766,6.6 L182.686,6.6 L182.686,8.028 L176.47,8.028 L176.47,10.068 L182.578,10.068 L182.578,11.4 L176.47,11.4 L176.47,13.56 L182.686,13.56 L182.686,15 L174.766,15 Z M185.946,15 L185.946,6.6 L187.494,6.6 L193.782,12.648 L193.782,6.6 L195.486,6.6 L195.486,15 L193.926,15 L187.65,8.952 L187.65,15 L185.946,15 Z M203.758,15 L203.758,6.6 L205.462,6.6 L205.462,15 L203.758,15 Z M208.842,15 L208.842,6.6 L210.39,6.6 L216.678,12.648 L216.678,6.6 L218.382,6.6 L218.382,15 L216.822,15 L210.546,8.952 L210.546,15 L208.842,15 Z" id="ASSEENIN"></path>
                    </g>
                </g>
            </g>
        </g>
    </g>
</svg>