<?xml version="1.0" encoding="UTF-8"?>
<svg width="194px" height="26px" viewBox="0 0 194 26" version="1.1" xmlns="http://www.w3.org/2000/svg" xmlns:xlink="http://www.w3.org/1999/xlink">
    <!-- Generator: sketchtool 54.1 (76490) - https://sketchapp.com -->
    <title>EEE50480-513E-4EE9-B37F-F066846B83C5</title>
    <desc>Created with sketchtool.</desc>
    <g id="Page-1" stroke="none" stroke-width="1" fill="none" fill-rule="evenodd">
        <g id="FC-Landing-Page-Desktop" transform="translate(-881.000000, -963.000000)" fill="#FFFFFF">
            <g id="supporters" transform="translate(371.000000, 877.000000)">
                <g id="PR-logos-1" transform="translate(0.000000, 72.000000)">
                    <g id="screen-daily" transform="translate(510.000000, 14.000000)">
                        <path d="M8.79566405,25.2 C4.04466405,25.2 -0.294335947,23.18 0.0156640526,15.95 L5.55966405,15.95 C5.49066405,19.16 6.42066405,20.9 8.86566405,20.9 C9.63282932,20.9895532 10.4005003,20.7366981 10.9642766,20.20876 C11.5280529,19.6808218 11.8307106,18.9313869 11.7916641,18.16 C11.7916641,15.43 7.65966405,14.92 5.07766405,13.97 C1.25466405,12.57 0.394664053,10.14 0.394664053,6.83 C0.394664053,3.41 3.56266405,0 8.48466405,0 C12.9616641,0 17.5046641,1.74 17.4706641,8.57 L11.9266641,8.57 C12.1016641,4.88 10.0696641,4.34 8.79566405,4.34 C8.12799649,4.26453678 7.45994619,4.47835771 6.96018052,4.9274779 C6.46041486,5.3765981 6.17669877,6.01809306 6.18066405,6.69 C6.18066405,8.71 8.55366405,9.22 10.3086641,9.7 C12.2366641,10.21 17.6086641,11.34 17.6086641,17.55 C17.6106641,21.85 14.5786641,25.2 8.79566405,25.2 Z M29.5326641,25.2 C23.0946641,25.2 19.3086641,22.64 19.3086641,12.33 C19.3086641,6.18 21.5806641,2.27373675e-13 29.7396641,2.27373675e-13 C35.5586641,2.27373675e-13 38.5186641,3.35 38.3136641,9.6 L32.7696641,9.6 C32.8386641,5.81 31.1526641,4.68 29.5326641,4.68 C26.1576641,4.68 25.9186641,8.33 25.8836641,12.56 C25.8146641,20.35 28.0836641,20.52 29.5326641,20.52 C31.2546641,20.52 32.9416641,19.67 32.7696641,15.09 L38.3166641,15.09 C38.6226641,23.63 33.9736641,25.2 29.5326641,25.2 L29.5326641,25.2 Z M53.6706641,24.72 L50.4336641,14.62 L47.2666641,14.62 L47.2666641,24.72 L41.0006641,24.72 L41.0006641,0.48 L49.9166641,0.48 C57.8356641,0.48 59.3166641,4.06 59.3166641,8.03 C59.3166641,12.29 57.3566641,12.84 56.0456641,13.45 L60.1456641,24.72 L53.6736641,24.72 L53.6706641,24.72 Z M49.0926641,4.85 L47.2666641,4.85 L47.2666641,10.21 L49.1246641,10.21 C51.5356641,10.21 52.8786641,10.45 52.8786641,7.65 C52.8786641,5.02 51.4656641,4.85 49.0916641,4.85 L49.0916641,4.85 L49.0926641,4.85 Z M62.1646641,24.72 L62.1646641,0.48 L77.0386641,0.48 L77.0386641,4.85 L68.4306641,4.85 L68.4306641,9.97 L75.7996641,9.97 L75.2466641,14.34 L68.4306641,14.34 L68.4306641,20.35 L77.0386641,20.35 L77.0386641,24.72 L62.1646641,24.72 L62.1646641,24.72 Z M79.5756641,24.72 L79.5756641,0.48 L94.4486641,0.48 L94.4486641,4.85 L85.8416641,4.85 L85.8416641,9.97 L93.2106641,9.97 L92.6576641,14.34 L85.8416641,14.34 L85.8416641,20.35 L94.4486641,20.35 L94.4486641,24.72 L79.5756641,24.72 L79.5756641,24.72 Z M110.066664,24.72 L102.496664,11.17 C102.566664,11.23 102.496664,24.72 102.496664,24.72 L96.9856641,24.72 L96.9856641,0.48 L102.146664,0.48 L109.726664,13.49 L109.726664,0.48 L115.236664,0.48 L115.236664,24.72 L110.066664,24.72 Z M119.626664,0.47 L125.496664,0.47 C129.526664,0.47 132.526664,1.51666667 134.496664,3.61 C136.466664,5.70333333 137.449997,8.69333333 137.446664,12.58 C137.446664,16.45 136.456664,19.43 134.456664,21.54 C132.456664,23.65 129.476664,24.7 125.496664,24.7 L119.626664,24.7 L119.626664,0.47 L119.626664,0.47 L119.626664,0.47 Z M125.856664,23.19 C128.539249,23.351335 131.174949,22.433161 133.176664,20.64 C134.926664,18.94 135.799997,16.2533333 135.796664,12.58 C135.826907,10.9835131 135.597241,9.3927379 135.116664,7.87 C134.722499,6.63244097 134.052296,5.50061795 133.156664,4.56 C132.274062,3.67432919 131.194769,3.00962148 130.006664,2.62 C128.648562,2.17455339 127.225787,1.95826464 125.796664,1.98 L121.276664,1.98 L121.276664,23.19 L125.856664,23.19 L125.856664,23.19 Z M146.356664,0.48 L148.306664,0.48 L156.956664,24.72 L155.206664,24.72 L152.366664,16.63 L142.236664,16.63 L139.396664,24.72 L137.716664,24.72 L146.356664,0.48 L146.356664,0.48 L146.356664,0.48 Z M151.836664,15.16 L147.316664,2.31 L147.256664,2.31 L142.766664,15.16 L151.836664,15.16 Z M160.756664,0.43 L162.406664,0.43 L162.406664,24.72 L160.756664,24.72 L160.756664,0.43 L160.756664,0.43 Z M183.406664,13.92 L175.276664,0.46 L177.126664,0.46 L184.296664,12.51 L191.426664,0.46 L193.206664,0.46 L185.056664,13.92 L185.056664,24.69 L183.406664,24.69 L183.406664,13.92 L183.406664,13.92 L183.406664,13.92 Z M167.716664,0.43 L169.366664,0.43 L169.366664,24.72 L167.716664,24.72 L167.716664,0.43 Z M178.596664,23.22 L167.716664,23.22 L167.716664,24.69 L178.596664,24.69 L178.596664,23.22 L178.596664,23.22 Z"></path>
                    </g>
                </g>
            </g>
        </g>
    </g>
</svg>