<?xml version="1.0" encoding="UTF-8"?>
<svg width="64px" height="60px" viewBox="0 0 64 60" version="1.1" xmlns="http://www.w3.org/2000/svg" xmlns:xlink="http://www.w3.org/1999/xlink">
    <!-- Generator: sketchtool 54.1 (76490) - https://sketchapp.com -->
    <title>455B7D69-D8E4-4410-ADDB-233A081A2926</title>
    <desc>Created with sketchtool.</desc>
    <defs>
        <linearGradient x1="50%" y1="100%" x2="50%" y2="3.061617e-15%" id="linearGradient-1">
            <stop stop-color="#7F5692" offset="0%"></stop>
            <stop stop-color="#DC6E69" offset="100%"></stop>
        </linearGradient>
    </defs>
    <g id="Page-1" stroke="none" stroke-width="1" fill="none" fill-rule="evenodd">
        <g id="FC-Landing-Page-Desktop" transform="translate(-298.000000, -1510.000000)" fill="url(#linearGradient-1)" fill-rule="nonzero">
            <g id="section-problems" transform="translate(0.000000, 1080.000000)">
                <g id="Group" transform="translate(200.000000, 320.000000)">
                    <g id="Group-22">
                        <g id="Stacked-Group" transform="translate(98.000000, 104.000000)">
                            <path d="M2.08695652,6 C0.934330435,6 0,6.93704444 0,8.09301863 L0,63.9069814 C0,65.0628858 0.9344,66 2.08695652,66 L61.9130435,66 C63.0656696,66 64,65.0628858 64,63.9069814 C64,62.7510072 63.0656696,61.8139627 61.9130435,61.8139627 L4.17391304,61.8139627 L4.17391304,8.09301863 C4.17391304,6.93704444 3.23951304,6 2.08695652,6 Z M43.826087,19.2558823 C42.5665391,19.2558823 41.584,20.4294379 41.6304696,21.4578775 C41.687513,22.5539216 42.7332174,23.4991985 43.826087,23.4419196 L49.7174261,23.4419196 L31.2173913,40.8837764 L24.5652174,35.3241608 C24.1445565,34.8223945 23.4782609,34.5384416 22.826087,34.5828834 C22.3609043,34.6163717 21.9089391,34.8117898 21.5652174,35.1279752 L7.65217391,47.686087 C6.79763478,48.4048296 6.6909913,49.8613612 7.43478261,50.6948013 C8.17864348,51.5282413 9.62817391,51.5763109 10.4347826,50.8038475 L23.0217739,39.4448261 L29.7174261,45.0480463 C30.453913,45.9040909 31.9205565,45.978114 32.7391304,45.2006273 L52.8695652,26.2326111 L52.8695652,32.511667 C52.8542609,33.6174088 53.8538435,34.6264879 54.9565217,34.6264879 C56.0592,34.6264879 57.0590609,33.6174088 57.0434783,32.511667 L57.0434783,21.348901 C57.0433391,20.2529964 56.0492522,19.2559521 54.9565217,19.2558823 L43.826087,19.2558823 Z" id="Shape"></path>
                        </g>
                    </g>
                </g>
            </g>
        </g>
    </g>
</svg>