<?xml version="1.0" encoding="UTF-8"?>
<svg width="73px" height="48px" viewBox="0 0 73 48" version="1.1" xmlns="http://www.w3.org/2000/svg" xmlns:xlink="http://www.w3.org/1999/xlink">
    <!-- Generator: sketchtool 54.1 (76490) - https://sketchapp.com -->
    <title>695F16A4-869A-4A4F-9C26-87A616AA0C4A</title>
    <desc>Created with sketchtool.</desc>
    <defs>
        <linearGradient x1="50%" y1="100%" x2="50%" y2="3.061617e-15%" id="linearGradient-1">
            <stop stop-color="#7F5692" offset="0%"></stop>
            <stop stop-color="#DC6E69" offset="100%"></stop>
        </linearGradient>
    </defs>
    <g id="Page-1" stroke="none" stroke-width="1" fill="none" fill-rule="evenodd">
        <g id="FC-Landing-Page-Desktop" transform="translate(-294.000000, -1836.000000)" fill="url(#linearGradient-1)" fill-rule="nonzero">
            <g id="section-problems" transform="translate(0.000000, 1080.000000)">
                <g id="Group" transform="translate(200.000000, 320.000000)">
                    <g id="Group-2" transform="translate(0.000000, 320.000000)">
                        <g id="Stacked-Group" transform="translate(94.000000, 104.000000)">
                            <path d="M72.5977403,42.3268893 L72.5977403,42.3268893 L69.1912,37.4973638 C69.9431791,36.8677197 70.6481588,36.1840029 71.3005129,35.4516696 C71.36278,35.3714818 71.419175,35.2869033 71.4692579,35.198594 L71.4692579,35.198594 C72.0298432,34.473856 72.0965225,33.4821659 71.6380029,32.6889279 C71.6380029,32.6889279 71.6380029,32.6889279 71.6380029,32.6256591 C64.4022551,20.0152123 51.0365588,12.1703845 36.4968501,12 C21.9523037,12.152687 8.57351789,19.986101 1.32405747,32.5940246 C0.698384702,33.702492 1.07316121,35.1076709 2.16778263,35.7574692 L2.23106202,35.7574692 C2.67401773,36.2003515 3.23298565,36.7275923 3.9606986,37.3391916 L0.438146056,42.3268893 C-0.316985846,43.3872908 -0.0717176117,44.8586562 0.986567409,45.6168717 C1.36190342,45.9228845 1.83112973,46.0904376 2.31543454,46.0913884 C3.10440861,46.0894585 3.84034308,45.6938604 4.27709553,45.0369069 L7.72582212,40.2495606 C9.52408882,41.5125656 11.413594,42.6404413 13.3787807,43.6239016 L10.077706,49.9507909 C9.76811607,50.504677 9.70605948,51.1632886 9.9067427,51.7652384 C10.1074259,52.3671882 10.5523037,52.8568498 11.1323625,53.1142355 C11.4626985,53.267801 11.822723,53.3469933 12.1870189,53.3462214 C13.0630579,53.3319618 13.8658588,52.8543744 14.2963318,52.0913884 L17.6712324,45.5114236 C19.6712353,46.3478024 21.7342426,47.0247797 23.8409727,47.5360281 L21.8371254,55.0650264 C21.524014,56.3189137 22.2538082,57.5970038 23.492936,57.9648506 C23.6944549,58.0255699 23.9050487,58.0505515 24.1151833,58.0386643 C25.1681046,58.023538 26.0898566,57.3280719 26.3932413,56.3198594 L28.5025542,48.4745167 C30.3971149,48.7847884 32.3103158,48.9679743 34.2293387,49.0228471 L34.2293387,57.6485062 C34.2293387,58.9472003 35.282313,60 36.5812226,60 C37.8801322,60 38.9331065,58.9472003 38.9331065,57.6485062 L38.9331065,49.0228471 C40.8947674,48.9490334 42.8564284,48.7170475 44.659891,48.4745167 L46.7692039,56.3198594 C47.0754761,57.326058 47.9954855,58.0202092 49.0472618,58.0386643 C49.2608523,58.0500799 49.4748298,58.02512 49.6800557,57.9648506 C50.9297638,57.6112855 51.663005,56.3189272 51.3253197,55.0650264 L49.2792862,47.5360281 C51.3819127,47.0002626 53.4523791,46.3454277 55.4806661,45.5746924 L58.7711943,52.0808436 C59.1883106,52.8567459 59.9994868,53.3393157 60.8805072,53.3356766 C61.2439967,53.3292894 61.6025544,53.2504198 61.9351636,53.1036907 C62.5063138,52.8365312 62.9426537,52.3465579 63.1420554,51.748452 C63.3414571,51.150346 63.2864179,50.496607 62.9898201,49.940246 L59.8258507,43.6133568 C61.7880234,42.65624 63.6774032,41.5566341 65.4788093,40.3233743 L68.8537099,45.026362 C69.277148,45.6552614 69.9735288,46.0464217 70.7309984,46.0808436 C71.2153032,46.0798928 71.6845295,45.9123397 72.0598655,45.6063269 C73.0635155,44.8185829 73.2971884,43.3938732 72.5977403,42.3268893 Z M36.5917691,44.4358524 C25.5341009,44.5210836 14.8221348,40.5862693 6.44968782,33.3637961 C13.0258454,23.1100694 24.3150627,16.8463654 36.4968501,16.6924429 C48.7331561,16.8458329 60.0655268,23.1634643 66.6283848,33.4903339 C58.2676075,40.6473046 47.5977628,44.5354585 36.5917691,44.4358524 Z" id="Shape"></path>
                        </g>
                    </g>
                </g>
            </g>
        </g>
    </g>
</svg>