<?xml version="1.0" encoding="UTF-8"?>
<svg width="180px" height="43px" viewBox="0 0 180 43" version="1.1" xmlns="http://www.w3.org/2000/svg" xmlns:xlink="http://www.w3.org/1999/xlink">
    <!-- Generator: Sketch 54.1 (76490) - https://sketchapp.com -->
    <title>tech-world</title>
    <desc>Created with Sketch.</desc>
    <g id="Page-1" stroke="none" stroke-width="1" fill="none" fill-rule="evenodd">
        <g id="FC-Landing-Page-Desktop" transform="translate(-1170.000000, -953.000000)" fill="#FFFFFF">
            <g id="supporters" transform="translate(371.000000, 877.000000)">
                <g id="PR-logos-2" transform="translate(1.000000, 68.000000)">
                    <path d="M895.540068,15.8959109 L891.680071,18.3318454 C890.52158,18.9946989 889.776083,20.2036875 889.700073,21.5428501 L889.700073,45.1673888 C891.131546,45.4343001 892.584244,45.569071 894.040069,45.5700226 C895.204677,45.5735469 896.367917,45.4894305 897.520066,45.3183765 L897.520066,17.1138782 C897.601868,16.607894 897.371277,16.1024093 896.936712,15.835093 C896.502147,15.5677768 895.950075,15.5918172 895.540068,15.8959109 L895.540068,15.8959109 Z M906.240059,8.24586853 L902.050062,10.6818031 C900.971057,11.3798386 900.342512,12.6030265 900.400064,13.8928077 L900.400064,44.7043599 C903.181145,43.9321372 905.797818,42.6527143 908.120057,40.929668 C908.158204,40.9013375 908.191912,40.8674071 908.220057,40.8290095 L908.220057,9.46383581 C908.301859,8.95785164 908.071268,8.45236688 907.636703,8.18505065 C907.202139,7.91773442 906.650066,7.94177482 906.240059,8.24586853 Z M884.510077,24.4015501 L880.65008,26.8475505 C879.489599,27.5083194 878.743353,28.7185223 878.670082,30.0585551 L878.670082,39.8928859 C880.968977,41.8648755 883.624127,43.3720773 886.490075,44.3319237 L886.490075,25.6195174 C886.568729,25.1144954 886.337508,24.6114908 885.904172,24.3449307 C885.470837,24.0783705 884.920669,24.1007149 884.510077,24.4015501 L884.510077,24.4015501 Z M811.050137,38.8762356 L808.720139,38.8762356 C807.06014,38.8762356 806.480141,38.5440627 806.480141,36.2591158 L806.480141,21.7642987 L810.970137,21.7642987 C811.426056,21.7583344 811.794211,21.387755 811.800136,20.9288335 L811.800136,19.5196152 C811.797948,19.0591163 811.427623,18.6863534 810.970137,18.68415 L806.480141,18.68415 L806.480141,14.1545197 C806.491601,13.9764502 806.431196,13.8012591 806.312605,13.6686236 C806.194014,13.5359881 806.027272,13.4571305 805.850141,13.4499105 L805.730141,13.4499105 L803.570143,13.7820834 C803.145265,13.8277026 802.822317,14.1874514 802.820144,14.6175486 L802.820144,18.68415 L798.790147,18.68415 C798.584467,18.6664112 798.380975,18.7374028 798.230315,18.8794573 C798.079654,19.0215119 797.995991,19.2212714 798.000148,19.4290226 L798.000148,20.5563972 C798.002863,20.7619483 798.088624,20.957522 798.237672,21.098056 C798.38672,21.2385901 798.586199,21.3119633 798.790147,21.3012698 L802.820144,21.7642987 L802.820144,36.2591158 C802.820144,40.8290095 804.650142,41.8255282 808.470139,41.8255282 C809.373509,41.8170854 810.275391,41.7498394 811.170137,41.6242113 C811.365118,41.6347012 811.555822,41.5641284 811.69762,41.4290086 C811.839419,41.2938889 811.919866,41.1060808 811.920136,40.9095363 L811.920136,39.4600546 C811.920136,39.0473549 811.630137,38.8762356 811.050137,38.8762356 Z M824.270126,18.3922405 C818.320131,18.3922405 815.040134,22.1769983 815.040134,28.115847 L815.040134,31.8603414 C815.040134,39.5808447 819.70013,41.8255282 824.480126,41.8255282 C826.977232,41.8403059 829.469574,41.6042672 831.92012,41.120919 C832.162823,41.1238328 832.394603,41.0195348 832.554299,40.8355462 C832.713995,40.6515576 832.785564,40.4063635 832.750119,40.1646637 L832.750119,38.7554454 C832.750134,38.5842414 832.676251,38.4214773 832.547657,38.3094241 C832.419063,38.197371 832.248447,38.1470852 832.08012,38.1716264 L831.87012,38.1716264 C829.419377,38.4871849 826.950828,38.6418547 824.480126,38.6346553 C820.650129,38.6346553 818.700131,36.8026714 818.700131,31.8603414 L818.700131,31.2765224 L832.620119,31.2765224 C832.85106,31.2758248 833.070434,31.1747034 833.221831,30.9991614 C833.373228,30.8236194 833.441874,30.5907849 833.410119,30.3605305 L833.410119,28.115847 C833.410119,22.2172617 830.340121,18.3922405 824.270126,18.3922405 L824.270126,18.3922405 Z M829.710122,28.4882833 L818.700131,28.4882833 L818.700131,28.115847 C818.700131,23.62648 820.690129,21.5931793 824.270126,21.5931793 C827.930123,21.5931793 829.710122,23.4251631 829.710122,28.115847 L829.710122,28.4882833 Z M851.700104,18.8552694 C849.986465,18.5516457 848.250086,18.3967335 846.510108,18.3922405 C840.810113,18.3922405 837.650115,22.3883811 837.650115,28.4882833 L837.650115,31.7294854 C837.650115,37.8394535 840.850113,41.8255282 846.510108,41.8255282 C848.24986,41.8258006 849.986361,41.6742455 851.700104,41.3725652 C851.939648,41.3869974 852.172976,41.292427 852.335744,41.1149332 C852.498513,40.9374393 852.573528,40.6957714 852.540103,40.4565733 L852.540103,38.9567623 C852.535586,38.7764896 852.456211,38.6063755 852.321269,38.4877629 C852.186327,38.3691502 852.008173,38.312899 851.830104,38.3326799 L851.660104,38.3326799 C849.951657,38.544498 848.231433,38.6453651 846.510108,38.6346553 C843.140111,38.6346553 841.310112,36.3799059 841.310112,31.7294854 L841.310112,28.4882833 C841.310112,23.7975994 843.180111,21.5931793 846.510108,21.5931793 C848.231214,21.5792913 849.951427,21.6767956 851.660104,21.8850888 L851.830104,21.8850888 C852.008173,21.9048697 852.186327,21.8486185 852.321269,21.7300059 C852.456211,21.6113932 852.535586,21.4412791 852.540103,21.2610064 L852.540103,19.7611955 C852.577673,19.5221098 852.503728,19.2789327 852.339648,19.1019749 C852.175568,18.925017 851.939649,18.8340109 851.700104,18.8552694 Z M867.210091,18.3922405 C865.029137,18.4217296 862.872583,18.8586111 860.850096,19.6806687 L860.850096,11.1247003 C860.858202,10.9076836 860.778883,10.6965714 860.630138,10.5392653 C860.481392,10.3819591 860.275831,10.2917964 860.060097,10.2892351 L857.980099,10.2892351 C857.764364,10.2917964 857.558803,10.3819591 857.410058,10.5392653 C857.261312,10.6965714 857.181994,10.9076836 857.190099,11.1247003 L857.190099,40.7082194 C857.192372,41.1514916 857.540117,41.5148189 857.980099,41.5336187 L860.020097,41.5336187 C860.468223,41.5183509 860.829498,41.1590788 860.850096,40.7082194 L860.850096,22.7608173 C862.676978,22.0235247 864.622143,21.6278365 866.590091,21.5931793 C869.290089,21.5931793 871.030088,22.8816075 871.030088,27.0388016 L871.030088,40.7082194 C871.038294,41.168472 871.412781,41.5364493 871.870087,41.5336187 L873.860086,41.5336187 C874.315498,41.5358507 874.686782,41.1666247 874.690085,40.7082194 L874.690085,27.0388016 C874.690085,20.9288335 871.620087,18.3922405 867.210091,18.3922405 L867.210091,18.3922405 Z M930.770039,28.5285467 C930.770039,22.4286445 927.610041,18.3922405 921.500046,18.3922405 C915.390051,18.3922405 912.270054,22.4286445 912.270054,28.5285467 L912.270054,31.6892221 C912.270054,37.7991901 915.390051,41.8255282 921.500046,41.8255282 C927.610041,41.8255282 930.770039,37.7991901 930.770039,31.6892221 L930.770039,28.5285467 Z M927.110042,31.6892221 C927.110042,35.9672063 925.370043,38.6346553 921.500046,38.6346553 C917.59005,38.6346553 915.930051,35.9269429 915.930051,31.6892221 L915.930051,28.5285467 C915.930051,24.2505624 917.63005,21.5931793 921.500046,21.5931793 C925.410043,21.5931793 927.110042,24.2908258 927.110042,28.5285467 L927.110042,31.6892221 Z M945.070027,18.3922405 C942.956718,18.417622 940.905544,19.115245 939.210032,20.3852779 L939.210032,19.5196152 C939.218137,19.3025985 939.138819,19.0914863 938.990073,18.9341802 C938.841328,18.7768741 938.635767,18.6867113 938.420033,18.68415 L936.460034,18.68415 C936.2443,18.6867113 936.038739,18.7768741 935.889993,18.9341802 C935.741248,19.0914863 935.661929,19.3025985 935.670035,19.5196152 L935.670035,40.7082194 C935.672307,41.1514916 936.020052,41.5148189 936.460034,41.5336187 L938.500032,41.5336187 C938.949603,41.5217455 939.312788,41.1605738 939.330032,40.7082194 L939.330032,23.2943071 C941.039426,22.1751451 943.030935,21.570964 945.070027,21.5529159 C945.282263,21.6019431 945.505115,21.5503713 945.674771,21.412968 C945.844426,21.2755648 945.942175,21.067483 945.940026,20.8483068 L945.940026,19.1471789 C945.954057,18.9206392 945.861985,18.7005387 945.691193,18.5523347 C945.520401,18.4041308 945.290561,18.3448937 945.070027,18.3922405 L945.070027,18.3922405 Z M951.050022,41.5336187 L953.22002,41.5336187 C953.652503,41.5118845 953.987002,41.1437565 953.97002,40.7082194 L953.97002,11.0844369 C953.978415,10.8780249 953.903408,10.676989 953.762104,10.5271678 C953.620799,10.3773465 953.425241,10.2915118 953.22002,10.2892351 L951.050022,10.2892351 C950.846277,10.293367 950.652818,10.3801205 950.513503,10.5298284 C950.374188,10.6795363 950.300816,10.8795179 950.310023,11.0844369 L950.310023,40.7082194 C950.289595,41.141241 950.62,41.509777 951.050022,41.5336187 L951.050022,41.5336187 Z M976.000002,41.120919 C976.250875,41.1408617 976.49688,41.0433161 976.66684,40.856505 C976.8368,40.6696939 976.911749,40.414465 976.870001,40.1646637 L976.870001,11.0844369 C976.880112,10.8775656 976.80568,10.6755404 976.664008,10.52533 C976.522336,10.3751195 976.325767,10.2898101 976.120002,10.2892351 L974.000003,10.2892351 C973.563927,10.2897897 973.210555,10.645489 973.210004,11.0844369 L973.210004,18.815006 C971.603868,18.5432987 969.97864,18.4019221 968.350008,18.3922405 C962.280013,18.3922405 959.290015,22.0461423 959.290015,28.5788759 L959.290015,31.5684319 C959.290015,37.7991901 962.150013,41.8255282 968.350008,41.8255282 C970.916569,41.8384975 973.478401,41.6025377 976.000002,41.120919 L976.000002,41.120919 Z M962.940012,31.5684319 L962.940012,28.5788759 C962.940012,24.1297723 964.270011,21.5931793 968.350008,21.5931793 C969.97502,21.5661513 971.599716,21.6637366 973.210004,21.8850888 L973.210004,38.3830091 C971.800005,38.5037993 969.760007,38.6346553 968.350008,38.6346553 C964.230011,38.6346553 962.940012,36.0980623 962.940012,31.5684319 L962.940012,31.5684319 Z M921.370047,50.8243938 L922.300046,50.8243938 L922.300046,48.0965498 L927.110042,48.0965498 L927.110042,47.3516772 L922.300046,47.3516772 L922.300046,45.348574 L927.290042,45.348574 L927.290042,44.6037015 L921.370047,44.6037015 L921.370047,50.8243938 Z M935.640035,46.4356853 C935.657488,45.9248953 935.439768,45.4345855 935.050035,45.1069938 C934.504851,44.7231938 933.842763,44.5449994 933.180037,44.6037015 L928.650041,44.6037015 L928.650041,50.8243938 L929.59004,50.8243938 L929.59004,48.3381301 L932.810037,48.3381301 L935.070035,50.8243938 L936.300034,50.8243938 L933.850036,48.1972082 C934.823647,48.1985258 935.619344,47.4154867 935.640035,46.4356853 L935.640035,46.4356853 Z M929.58004,47.6133892 L929.58004,45.348574 L933.240037,45.348574 C933.699441,45.2748295 934.163366,45.4509038 934.460036,45.8116029 C934.593005,46.0070713 934.662846,46.239064 934.660036,46.4759487 C934.664727,46.7149005 934.582987,46.9474256 934.430036,47.1302286 C934.008749,47.5193516 933.435772,47.6968135 932.870037,47.6133892 L929.58004,47.6133892 L929.58004,47.6133892 Z M940.98003,44.4527138 C938.990032,44.4527138 936.960034,45.4894959 936.960034,47.7945744 C936.929639,48.8162716 937.444637,49.7762509 938.310033,50.3110357 C939.135738,50.7986253 940.083582,51.0362732 941.04003,50.9955132 C943.190029,50.9955132 945.060027,49.9285336 945.060027,47.8046403 C945.060027,45.741142 943.310028,44.4627797 940.98003,44.4527138 L940.98003,44.4527138 Z M941.04003,50.230509 C940.101678,50.2999777 939.177184,49.9715368 938.490032,49.3245829 C938.096743,48.8950406 937.885119,48.328199 937.900033,47.7442452 C937.900033,45.9021955 939.490032,45.2479156 940.87003,45.2076522 C942.700029,45.1673888 944.100028,46.0733149 944.100028,47.7140477 C944.100028,48.7709614 943.510028,50.230509 941.04003,50.230509 L941.04003,50.230509 Z M951.170022,48.6904347 C950.943371,49.1324216 950.739762,49.5859999 950.560023,50.0493238 C950.310023,49.4655047 950.250023,49.3245829 949.920023,48.6602371 L947.840025,44.6037015 L946.540026,44.6037015 L946.540026,50.8243938 L947.430025,50.8243938 L947.430025,46.9490434 C947.437993,46.4210651 947.411268,45.8931342 947.350025,45.3687057 C947.546574,45.8541468 947.770265,46.3279995 948.020025,46.7879899 L950.110023,50.8243938 L950.980022,50.8243938 L953.25002,46.4356853 C953.444599,46.0855229 953.615001,45.722294 953.76002,45.348574 C953.67506,45.9788761 953.644945,46.6154425 953.67002,47.2510188 L953.67002,50.8243938 L954.560019,50.8243938 L954.560019,44.6037015 L953.27002,44.6037015 L951.170022,48.6904347 Z M959.520015,50.8243938 L960.490014,50.8243938 L960.490014,44.6037015 L959.520015,44.6037015 L959.520015,50.8243938 Z M968.190008,45.288179 C967.445901,44.7664018 966.543421,44.5241554 965.64001,44.6037015 L962.320013,44.6037015 L962.320013,50.8243938 L965.000011,50.8243938 C966.190962,50.9669842 967.391392,50.6505155 968.360008,49.9385995 C968.96387,49.3429101 969.299813,48.5247936 969.290007,47.6737843 C969.322264,46.7475112 968.913637,45.8613082 968.190008,45.288179 L968.190008,45.288179 Z M967.810008,49.2037928 C967.126058,49.8805209 966.171131,50.2034003 965.22001,50.0795213 L963.280012,50.0795213 L963.280012,45.3385082 L965.65001,45.3385082 C966.360073,45.2692079 967.069321,45.4783356 967.630009,45.9223272 C968.096445,46.3693983 968.351116,46.9956218 968.330008,47.6435867 C968.345051,48.2091331 968.160852,48.7618035 967.810008,49.2037928 L967.810008,49.2037928 Z M974.270003,47.5529941 L974.270003,48.2878008 L977.210001,48.2878008 C977.172302,48.7151203 976.984369,49.1148787 976.680001,49.4151755 C976.075695,49.9586906 975.2903,50.2533564 974.480003,50.2405748 C973.498183,50.278506 972.553777,49.8588939 971.920005,49.1031343 C971.628252,48.6766929 971.471391,48.1714312 971.470005,47.6536526 C971.470005,46.0833807 972.860004,45.217718 974.510003,45.217718 C975.266537,45.2017895 976.006335,45.4429208 976.610001,45.9021955 C976.774071,46.0356136 976.918805,46.1914649 977.040001,46.3652244 L977.97,46.1035124 C977.807618,45.809266 977.586275,45.5521876 977.320001,45.348574 C976.481865,44.7359314 975.46533,44.4208194 974.430003,44.4527138 C973.131281,44.3836423 971.874583,44.9268368 971.030006,45.9223272 C970.665031,46.4443485 970.466252,47.065677 970.460006,47.7039818 C970.460006,49.4856364 971.970005,50.9753815 974.270003,50.9753815 C975.1646,50.9991608 976.046866,50.7614082 976.810001,50.290904 C976.950001,50.1801797 977.060001,50.0895871 977.180001,49.9788628 L977.180001,50.8344597 L978,50.8344597 L978,47.5529941 L974.270003,47.5529941 L974.270003,47.5529941 Z" id="tech-world"></path>
                </g>
            </g>
        </g>
    </g>
</svg>