<?xml version="1.0" encoding="UTF-8"?>
<svg width="158px" height="45px" viewBox="0 0 158 45" version="1.1" xmlns="http://www.w3.org/2000/svg" xmlns:xlink="http://www.w3.org/1999/xlink">
    <!-- Generator: Sketch 54.1 (76490) - https://sketchapp.com -->
    <title>variety</title>
    <desc>Created with Sketch.</desc>
    <g id="Page-1" stroke="none" stroke-width="1" fill="none" fill-rule="evenodd">
        <g id="FC-Landing-Page-Desktop" transform="translate(-1430.000000, -951.000000)" fill="#FFFFFF">
            <g id="supporters" transform="translate(371.000000, 877.000000)">
                <g id="PR-logos-2" transform="translate(1.000000, 68.000000)">
                    <path d="M1215.73047,20.07 L1215.49048,21.1 L1213.44061,21.65 C1212.98903,21.8069004 1212.59988,22.104911 1212.33068,22.5 L1202.93128,34.53 L1199.3815,46.32 C1199.20151,46.93 1199.4315,47.3 1199.83147,47.35 L1202.30132,47.96 L1201.96134,48.99 L1189.64212,48.99 L1189.9821,47.96 L1192.27195,47.4 C1192.87536,47.2620472 1193.33443,46.7712896 1193.43188,46.16 L1196.96166,34.24 L1193.88185,22.6 C1193.85355,22.0565679 1193.49707,21.5851975 1192.98191,21.41 L1191.532,21.02 L1191.77199,19.99 L1202.30132,19.99 L1202.07133,21.02 L1200.27145,21.52 C1200.01921,21.5437703 1199.79547,21.691844 1199.67499,21.914735 C1199.55452,22.1376259 1199.5532,22.4059375 1199.67149,22.63 L1202.20132,32.52 L1209.70085,22.5 C1209.82722,22.3368141 1209.90982,22.1440572 1209.94083,21.94 C1209.91502,21.7029875 1209.72786,21.5158185 1209.49086,21.49 L1207.44099,20.99 L1207.73097,19.96 L1215.73047,20.07 Z M1191.22202,26.62 L1189.82211,26.62 L1188.58219,22.87 C1188.48012,22.288548 1187.93731,21.8913411 1187.35227,21.97 L1184.27246,21.97 L1177.08292,46.32 C1176.96002,46.5358593 1176.95246,46.7986918 1177.06273,47.0212639 C1177.17301,47.243836 1177.3867,47.3970296 1177.63288,47.43 L1179.68275,47.99 L1179.34277,49.02 L1167.23354,49.02 L1167.57352,47.99 L1169.70339,47.48 C1170.43185,47.4288502 1171.02031,46.8655716 1171.1033,46.14 L1178.29284,21.97 L1174.71307,21.97 C1174.15348,22.0223554 1173.65223,22.3379772 1173.36315,22.82 L1170.84331,26.31 L1169.4434,26.31 L1171.68326,19.33 L1172.5732,19.33 C1172.72546,19.7696874 1173.13788,20.0660081 1173.60314,20.07 L1188.66218,20.07 C1189.25181,20.1458287 1189.82754,19.8519917 1190.11209,19.33 L1191.06203,19.33 L1191.22202,26.62 L1191.22202,26.62 L1191.22202,26.62 Z M1168.91344,26.31 L1167.52352,26.31 L1166.15361,22.71 C1166.01174,22.2270029 1165.54406,21.9151938 1165.04368,21.97 L1159.33404,21.97 L1156.09425,32.99 L1161.5239,32.99 C1162.07248,32.958803 1162.5634,32.6391113 1162.81382,32.15 L1164.31373,29.95 L1165.70364,29.95 L1163.1238,38.73 L1161.75389,38.73 L1161.81389,35.64 C1161.8255,35.4105749 1161.72771,35.1892183 1161.55028,35.0433224 C1161.37285,34.8974266 1161.13678,34.8442565 1160.91394,34.9 L1155.54428,34.9 L1151.93451,47.06 L1159.83401,47.06 C1160.63555,47.1949965 1161.44077,46.841462 1161.88388,46.16 L1165.02368,42.22 L1166.52359,42.22 L1163.33379,49.81 L1162.31385,49.81 C1161.98503,49.2042447 1161.29959,48.8838127 1160.62396,49.02 L1142.53511,49.02 L1142.87509,47.99 L1145.06495,47.43 C1145.63908,47.2742127 1146.06917,46.7971815 1146.16488,46.21 L1153.12444,22.66 C1153.20771,22.4866251 1153.21752,22.2869824 1153.15165,22.1062774 C1153.08577,21.9255723 1152.94977,21.7790905 1152.77446,21.7 L1150.82458,21.1 L1151.11456,20.07 L1166.73357,20.07 C1167.25665,20.0895018 1167.74231,19.7996523 1167.9735,19.33 L1168.86344,19.33 L1168.91344,26.31 L1168.91344,26.31 L1168.91344,26.31 Z M1215.47048,12.48 C1201.37278,15.510011 1186.99281,17.0319042 1172.5732,17.02 C1138.42537,17.02 1114.49689,12.35 1104.32753,9.94 L1061.63024,50.55 L1058.15046,51 L1070.67966,12.66 C1066.89546,14.2030487 1062.91947,15.2257022 1058.86041,15.7 C1057.83048,15.78 1057.83048,15.23 1058.31045,14.96 C1061.01607,13.64208 1063.07493,11.2874107 1064.02009,8.43 C1070.1797,9.94 1074.8194,8.78 1080.44904,6.69 L1069.07977,39 L1099.30785,6 C1117.57367,9.80609362 1136.17638,11.7626347 1154.83433,11.84 C1169.55339,11.84 1182.47258,9.52 1189.08216,6.79 C1198.43156,12.37 1209.12089,11.95 1215.2305,11.53 C1216.13044,11.47 1216.28043,12.29 1215.47048,12.48 L1215.47048,12.48 Z M1149.67466,20.07 L1149.38467,21.1 L1147.03482,21.76 C1146.59673,21.8907801 1146.27102,22.2591651 1146.19488,22.71 L1139.24532,46.08 C1139.03533,46.8 1138.87534,47.22 1139.74529,47.48 L1141.42518,47.99 L1141.0852,49.02 L1129.94591,49.02 L1130.29588,47.99 L1131.92578,47.48 C1132.62663,47.373849 1133.18396,46.8365317 1133.31569,46.14 L1140.13526,22.63 C1140.21665,22.4620402 1140.22642,22.2682447 1140.16234,22.092949 C1140.09826,21.9176534 1139.9658,21.7758572 1139.79528,21.7 C1139.77936,21.6916007 1139.7626,21.6848973 1139.74529,21.68 L1137.9054,21.07 L1138.19538,20.04 L1149.67466,20.07 Z M1133.05571,27.2 C1133.05571,31.59 1129.58593,35.45 1123.91629,35.19 C1122.8145,35.1448388 1121.72117,34.9771391 1120.6565,34.69 C1120.6565,40.05 1122.28639,45.53 1125.47619,45.53 C1127.42607,45.53 1128.00603,43.89 1128.26601,42.49 C1128.26601,42.25 1128.506,42.09 1128.76598,42.38 C1129.68339,43.2539348 1130.19137,44.4731703 1130.16589,45.74 C1130.16589,49.04 1128.10602,50.52 1124.94622,50.52 C1117.02673,50.52 1116.65675,39.08 1117.94667,32.04 C1118.02666,31.65 1118.17665,31.59 1118.44664,31.75 C1119.59887,32.4351857 1120.92745,32.7656143 1122.26639,32.7 C1124.81623,32.7 1127.23608,30.64 1127.23608,26.97 C1127.23608,23.3 1124.15627,21.02 1119.68656,21.02 L1112.28703,46.21 C1112.21278,46.4047318 1112.17548,46.611598 1112.17703,46.82 C1112.15972,46.9677288 1112.2032,47.1161497 1112.29748,47.231184 C1112.39177,47.3462183 1112.52876,47.4179829 1112.677,47.43 L1114.80687,47.99 L1114.46689,49.02 L1103.32759,49.02 L1103.67757,47.99 L1105.35747,47.48 C1105.91199,47.272304 1106.30762,46.7767781 1106.3874,46.19 L1113.78693,21.02 C1110.56714,21.7 1109.01723,22.89 1109.01723,24.72 C1108.95969,25.44935 1109.15379,26.1763966 1109.5672,26.78 C1109.67419,26.94698 1109.72982,27.1416957 1109.72719,27.34 C1109.72719,27.76 1109.35721,28.13 1108.33728,28.13 C1106.67909,28.233853 1105.24489,26.9866491 1105.11748,25.33 L1105.11748,24.8 C1105.11748,23.4 1105.96743,18.66 1118.20665,18.66 C1128.58599,18.66 1133.03571,22.02 1133.03571,27.2 L1133.05571,27.2 L1133.05571,27.2 Z M1097.11799,25.19 L1085.63872,39.39 L1095.82807,39.39 L1097.11799,25.19 L1097.11799,25.19 Z M1103.06761,48.01 L1102.72763,49.04 L1092.1983,49.04 L1092.53828,48.01 L1094.37816,47.51 C1094.88177,47.3797255 1095.22958,46.9200852 1095.21811,46.4 L1095.66808,41.51 L1083.84883,41.51 L1079.97907,46.24 C1079.77018,46.4376418 1079.63002,46.6969577 1079.5791,46.98 C1079.57781,47.237739 1079.77264,47.454229 1080.02907,47.48 L1081.81896,48.04 L1081.47898,49.07 L1072.65954,49.07 L1073.04951,48.04 L1074.8994,47.59 C1075.6103,47.3725577 1076.23587,46.9391705 1076.68928,46.35 L1100.59777,18.11 L1103.06761,17.66 L1100.77776,46.45 C1100.77776,47.06 1100.77776,47.48 1101.51771,47.64 C1101.48771,47.62 1103.06761,48.01 1103.06761,48.01 L1103.06761,48.01 Z" id="variety"></path>
                </g>
            </g>
        </g>
    </g>
</svg>