<?xml version="1.0" encoding="UTF-8"?>
<svg width="32px" height="28px" viewBox="0 0 32 28" version="1.1" xmlns="http://www.w3.org/2000/svg" xmlns:xlink="http://www.w3.org/1999/xlink">
    <!-- Generator: sketchtool 54.1 (76490) - https://sketchapp.com -->
    <title>F115BA01-52FB-4115-9B41-9EA0BDA35BF5</title>
    <desc>Created with sketchtool.</desc>
    <g id="Page-1" stroke="none" stroke-width="1" fill="none" fill-rule="evenodd">
        <g id="FC-Landing-Page-Desktop" transform="translate(-1575.000000, -82.000000)" fill="#FFFFFF" fill-rule="nonzero">
            <g id="header" transform="translate(100.000000, 64.000000)">
                <path d="M1485.66071,23.0892857 L1485.66071,44.0357143 C1485.66071,44.3333348 1485.58631,44.5863085 1485.4375,44.7946429 C1485.28869,45.0029772 1485.07143,45.1071429 1484.78571,45.1071429 C1484.58333,45.1071429 1484.38691,45.0595243 1484.19643,44.9642857 L1475.89286,40.8035714 C1475.64286,40.6845232 1475.43155,40.4851204 1475.25893,40.2053571 C1475.08631,39.9255938 1475,39.6488109 1475,39.375 L1475,19.0178571 C1475,18.7797607 1475.05952,18.5773818 1475.17857,18.4107143 C1475.29762,18.2440468 1475.47024,18.1607143 1475.69643,18.1607143 C1475.8631,18.1607143 1476.125,18.2499991 1476.48214,18.4285714 L1485.60714,23 C1485.64286,23.0357145 1485.66071,23.0654761 1485.66071,23.0892857 Z M1486.80357,24.8928571 L1496.33929,40.3571429 L1486.80357,35.6071429 L1486.80357,24.8928571 Z M1507,25.2142857 L1507,44.0357143 C1507,44.3333348 1506.91667,44.5744038 1506.75,44.7589286 C1506.58333,44.9434533 1506.35714,45.0357143 1506.07143,45.0357143 C1505.78571,45.0357143 1505.50595,44.9583341 1505.23214,44.8035714 L1497.35714,40.875 L1507,25.2142857 Z M1506.94643,23.0714286 C1506.94643,23.107143 1505.41966,25.6041419 1502.36607,30.5625 C1499.31248,35.5208581 1497.52381,38.4226148 1497,39.2678571 L1490.03571,27.9464286 L1495.82143,18.5357143 C1496.02381,18.2023793 1496.33333,18.0357143 1496.75,18.0357143 C1496.91667,18.0357143 1497.07143,18.0714282 1497.21429,18.1428571 L1506.875,22.9642857 C1506.92262,22.9880954 1506.94643,23.0238093 1506.94643,23.0714286 Z" id="medium-icon"></path>
            </g>
        </g>
    </g>
</svg>